<?xml version="1.0" standalone="no"?>
<!DOCTYPE svg PUBLIC "-//W3C//DTD SVG 20010904//EN"
 "http://www.w3.org/TR/2001/REC-SVG-20010904/DTD/svg10.dtd">
<svg version="1.0" xmlns="http://www.w3.org/2000/svg"
 width="5000.000000pt" height="5000.000000pt" viewBox="0 0 5000.000000 5000.000000"
 preserveAspectRatio="xMidYMid meet">

<g transform="translate(0.000000,5000.000000) scale(0.100000,-0.100000)"
fill="#000000" stroke="none">
<path d="M24685 46000 c-644 -31 -1201 -104 -1763 -230 -615 -139 -1200 -359
-1992 -748 -753 -370 -1256 -699 -1935 -1266 -687 -573 -1158 -1113 -1729
-1983 -564 -861 -851 -1506 -1115 -2508 -205 -780 -261 -1255 -247 -2080 4
-214 10 -424 14 -465 7 -74 6 -76 -47 -212 -38 -96 -59 -138 -71 -138 -8 0
-1833 223 -4054 495 -2222 272 -4049 495 -4061 495 -20 0 -23 -22 -118 -792
-220 -1794 -706 -5758 -982 -7998 -74 -602 -132 -1096 -130 -1099 3 -2 1814
-226 4026 -497 2211 -271 4022 -494 4024 -496 2 -2 -5 -174 -15 -383 -38 -768
-42 -895 -47 -1686 -5 -756 0 -1162 28 -2429 16 -698 17 -1929 1 -2175 -49
-784 -178 -1813 -303 -2425 -58 -278 -237 -1053 -324 -1400 -41 -162 -83 -349
-94 -415 -188 -1131 -100 -2502 249 -3894 241 -960 623 -1998 1049 -2850 549
-1096 1170 -1869 1841 -2289 1271 -796 3902 -1353 7125 -1507 1042 -50 2729
-52 3790 -5 3221 143 5688 727 6776 1602 205 165 320 294 526 593 874 1266
1651 2661 2082 3742 311 778 470 1402 501 1963 6 102 17 230 25 285 27 192 40
389 55 860 11 325 16 404 69 1035 60 706 65 829 64 1550 0 660 -5 879 -43
1890 -42 1128 -45 1351 -45 3232 0 1010 3 1840 7 1844 4 4 1442 -169 3195
-384 1753 -215 3189 -390 3190 -389 1 1 97 778 213 1727 116 949 388 3174 605
4945 216 1771 392 3221 391 3222 -1 1 -1639 203 -3641 448 -2002 245 -3641
447 -3642 449 -1 1 -14 137 -28 302 -14 164 -43 490 -65 724 -22 234 -53 603
-70 820 -34 447 -52 622 -81 783 -58 328 -199 738 -364 1062 -45 88 -194 381
-332 650 -253 497 -347 673 -513 960 -448 774 -1213 1828 -1845 2540 -481 543
-1358 1383 -1995 1911 -474 392 -994 749 -1623 1113 -1174 680 -1874 956
-3120 1230 -670 148 -1086 210 -1752 262 -176 14 -1418 20 -1660 9z m1185
-236 c492 -36 928 -100 1510 -225 554 -118 1001 -239 1360 -366 190 -67 513
-194 508 -199 -2 -2 -49 9 -104 25 -179 51 -289 74 -318 67 -41 -10 -76 -50
-76 -86 0 -16 -3 -30 -7 -30 -5 0 -44 12 -88 26 -116 37 -345 94 -378 94 -69
0 -115 -56 -104 -128 10 -57 38 -74 188 -111 179 -44 466 -139 575 -191 49
-23 104 -42 122 -42 68 0 121 67 102 133 -5 18 -8 35 -5 37 7 8 260 -81 354
-124 112 -52 148 -55 193 -15 26 23 32 36 32 70 1 22 5 41 9 41 4 0 82 -39
172 -87 l164 -86 -24 -29 c-33 -39 -34 -97 -2 -133 13 -16 75 -48 157 -83 205
-88 492 -239 830 -439 418 -247 501 -298 562 -344 50 -38 56 -40 106 -35 l52
5 137 -106 c248 -191 580 -478 1008 -873 263 -243 953 -933 1135 -1135 484
-540 1047 -1277 1505 -1970 266 -404 676 -1108 823 -1415 125 -260 195 -468
227 -675 21 -134 16 -440 -10 -605 -78 -506 -204 -873 -493 -1444 -123 -244
-126 -249 -141 -225 -46 70 -202 268 -288 365 -183 206 -548 609 -623 688
-118 124 -260 248 -555 486 -239 192 -298 246 -472 427 -393 412 -508 518
-878 808 -55 43 -167 144 -250 225 -215 209 -228 220 -273 220 -33 0 -52 13
-167 112 -71 61 -137 125 -147 142 -23 43 -251 264 -387 375 -204 165 -486
357 -693 470 -86 47 -137 54 -186 26 -29 -18 -29 -17 -98 23 -38 22 -206 113
-374 203 -168 89 -379 203 -470 252 -511 275 -789 394 -1380 590 -124 41 -355
122 -515 180 -520 188 -837 285 -1139 347 -81 17 -338 62 -570 100 -853 141
-1021 155 -2056 166 -943 10 -1716 -28 -2285 -112 -1055 -156 -2159 -574
-3035 -1148 -526 -345 -1115 -846 -1582 -1343 -290 -310 -426 -471 -681 -812
-77 -102 -142 -188 -145 -191 -9 -9 7 299 23 455 43 415 128 818 291 1384 200
695 407 1169 792 1811 209 349 554 852 783 1141 68 85 68 86 114 86 l46 0 215
214 c233 233 243 247 211 315 l-16 33 167 154 c445 412 982 830 1397 1089 719
449 1673 890 2383 1102 494 148 1122 261 1727 311 430 35 649 37 1035 9z
m-3945 -544 c-405 -183 -856 -416 -1175 -608 -562 -338 -1244 -875 -1731
-1361 -307 -308 -495 -526 -769 -891 -80 -107 -195 -260 -255 -340 -221 -292
-370 -528 -567 -898 -72 -136 -171 -311 -220 -388 -92 -148 -107 -185 -90
-231 8 -24 0 -51 -50 -178 -224 -567 -453 -1413 -527 -1945 -33 -241 -51 -462
-60 -757 -5 -154 -12 -287 -17 -295 -5 -8 -81 -114 -169 -236 l-160 -222 -8
88 c-11 115 -2 884 12 1037 43 469 134 921 306 1515 257 890 584 1548 1233
2480 521 748 993 1241 1778 1857 523 411 1027 720 1693 1038 362 174 776 355
806 354 6 0 -8 -9 -30 -19z m8095 -330 c264 -121 708 -356 1058 -557 472 -272
973 -604 1362 -902 621 -476 1673 -1468 2271 -2141 487 -548 1211 -1525 1603
-2162 127 -208 432 -735 534 -923 154 -286 263 -565 314 -800 20 -96 23 -137
23 -330 0 -121 -4 -229 -8 -240 -7 -16 -17 4 -51 95 -72 191 -152 365 -260
565 -57 105 -180 344 -274 532 -428 855 -737 1366 -1310 2163 -507 705 -953
1238 -1492 1784 -637 646 -1324 1270 -1790 1627 -625 480 -1474 1001 -2263
1390 -109 53 -201 100 -205 103 -11 12 335 -133 488 -204z m-5405 -3855 c352
-14 629 -47 1245 -146 727 -117 966 -179 1635 -421 121 -44 357 -126 525 -183
687 -231 848 -303 1655 -735 768 -411 826 -446 1375 -826 80 -55 208 -144 285
-197 191 -131 323 -236 533 -420 97 -86 272 -227 387 -314 116 -87 300 -232
410 -323 235 -194 600 -554 468 -462 -472 328 -860 559 -1148 682 -152 66
-168 76 -305 200 -161 145 -144 133 -850 585 -227 146 -358 221 -500 285 -250
114 -300 143 -531 312 -321 234 -559 349 -929 448 -85 23 -227 62 -315 87 -88
26 -243 67 -345 93 -102 26 -250 66 -330 88 -80 23 -219 58 -310 78 -308 67
-586 155 -965 304 -317 125 -633 181 -1125 200 -336 13 -547 25 -880 51 -232
19 -278 20 -373 9 -88 -10 -144 -10 -293 0 -101 7 -212 10 -247 7 -73 -7 -259
-52 -427 -104 -115 -35 -116 -35 -380 -44 -246 -7 -371 -20 -499 -51 -26 -6
-161 -11 -316 -12 -235 -2 -282 -5 -365 -23 -138 -31 -240 -65 -460 -154 -240
-96 -328 -121 -545 -160 -93 -16 -204 -39 -245 -50 -169 -46 -372 -149 -479
-244 -93 -83 -148 -126 -321 -250 -240 -172 -293 -216 -415 -340 -60 -62 -131
-124 -156 -139 -26 -14 -141 -68 -255 -119 -289 -128 -393 -192 -538 -327 -91
-86 -167 -190 -267 -365 -46 -80 -113 -185 -147 -231 -63 -83 -96 -114 -305
-287 -58 -48 -144 -124 -191 -168 -47 -45 -86 -78 -86 -74 0 4 69 103 154 219
403 554 629 819 1052 1236 823 811 1614 1346 2529 1710 510 203 913 325 1381
419 384 77 727 117 1254 146 413 22 609 25 955 10z m-4260 -644 c-420 -217
-720 -405 -1089 -685 -637 -483 -1247 -1084 -1719 -1693 -72 -94 -289 -390
-482 -657 -192 -266 -353 -485 -356 -485 -4 -1 -10 87 -14 194 l-7 195 113
158 c407 566 677 890 1070 1282 813 811 1617 1364 2534 1741 77 32 145 58 150
58 6 0 -84 -48 -200 -108z m3932 -209 c21 -13 -422 -172 -480 -172 -15 0 -18
7 -15 43 3 48 -6 44 203 102 119 34 261 47 292 27z m4931 -118 c258 -104 460
-205 1177 -589 541 -289 689 -377 990 -584 88 -60 241 -165 340 -233 359 -246
498 -351 689 -523 145 -130 216 -189 353 -293 66 -50 144 -118 173 -152 41
-46 64 -63 97 -73 75 -22 382 -286 606 -521 334 -351 439 -448 726 -679 342
-275 476 -405 889 -862 323 -358 461 -527 543 -665 l42 -72 -79 -154 c-43 -84
-81 -154 -84 -154 -3 0 -44 78 -92 173 -208 410 -266 488 -803 1083 -406 451
-492 532 -889 848 -268 214 -333 273 -575 534 -279 301 -491 487 -979 856
-119 91 -275 217 -347 281 -180 162 -314 268 -495 394 -397 275 -467 323 -650
447 -244 164 -392 252 -740 439 -151 81 -358 193 -460 248 -102 55 -282 150
-400 210 -232 119 -236 123 -32 41z m-3568 0 c63 -15 149 -39 190 -54 308
-115 364 -139 348 -145 -23 -9 -139 26 -266 81 -122 53 -184 64 -230 40 -35
-18 -62 -62 -62 -101 0 -14 -6 -25 -13 -25 -32 0 -172 46 -267 87 -163 72
-246 69 -284 -11 -20 -42 -20 -59 -1 -96 20 -38 53 -60 91 -60 17 0 65 -15
106 -34 252 -115 605 -170 840 -131 96 15 117 16 190 4 105 -17 325 -17 403 0
33 7 86 22 117 33 57 19 57 19 155 -2 89 -19 395 -98 400 -104 2 -1 -46 -12
-106 -25 -143 -28 -289 -77 -453 -151 -226 -102 -275 -139 -284 -216 -7 -52
22 -98 71 -114 46 -15 76 -7 119 30 55 48 363 187 456 205 l35 6 -33 -20 c-96
-61 -95 -189 2 -221 39 -13 88 3 119 38 24 26 279 143 397 182 109 36 256 66
361 76 68 6 89 3 210 -31 160 -44 329 -105 421 -151 65 -33 67 -34 58 -64 -18
-63 32 -140 92 -140 10 0 59 -39 110 -86 51 -47 106 -92 122 -101 38 -20 92
-11 126 22 l27 26 24 -20 c21 -17 22 -21 9 -33 -9 -7 -41 -47 -72 -88 -31 -42
-78 -91 -103 -109 l-45 -33 -68 38 c-37 21 -127 78 -200 128 -126 84 -133 91
-126 115 19 64 10 89 -57 158 -88 89 -200 179 -245 193 -57 19 -114 7 -148
-31 -25 -28 -28 -38 -24 -81 5 -47 4 -49 -16 -44 -127 35 -245 1 -261 -76 -4
-17 -12 -27 -18 -24 -142 63 -331 116 -406 115 -96 -1 -148 -39 -158 -117 -5
-38 -2 -45 31 -78 37 -37 37 -37 102 -31 135 13 307 -58 554 -228 196 -135
302 -199 393 -237 40 -17 73 -31 74 -32 1 0 -43 -1 -98 -1 -97 0 -99 0 -130
-31 -23 -23 -31 -41 -32 -68 -1 -20 -3 -35 -6 -33 -48 27 -194 92 -256 112
-67 23 -92 26 -168 23 -86 -3 -90 -4 -118 -36 -40 -45 -40 -99 0 -144 27 -30
32 -32 122 -38 81 -5 107 -12 189 -48 177 -78 178 -77 -54 -77 -110 0 -235 -2
-276 -5 -41 -3 -128 1 -192 9 -95 11 -144 11 -249 2 -319 -29 -554 -107 -741
-248 -165 -125 -191 -160 -171 -234 l10 -38 -46 -24 c-84 -46 -170 -77 -235
-86 -87 -13 -107 -7 -100 29 13 62 -56 128 -121 117 -18 -3 -54 -19 -81 -35
-43 -28 -50 -29 -73 -17 -42 22 -130 90 -234 183 -133 117 -236 189 -364 255
-136 69 -208 94 -336 113 -120 19 -317 14 -389 -9 -35 -11 -59 -12 -88 -6
-159 36 -356 40 -475 9 -110 -28 -111 -27 -95 125 14 130 8 231 -21 374 -10
51 -19 99 -19 106 0 7 28 23 62 34 72 24 106 27 66 5 -31 -16 -58 -61 -58 -96
0 -41 36 -86 78 -99 43 -13 60 -7 212 76 88 47 204 95 231 95 48 0 365 -183
744 -430 337 -219 406 -256 571 -306 76 -23 108 -27 219 -28 112 -1 141 2 208
23 l78 25 87 -23 c118 -31 257 -38 347 -17 108 25 222 74 250 108 50 59 23
147 -52 167 -30 9 -46 5 -117 -24 -44 -18 -109 -38 -144 -45 -95 -17 -211 3
-268 47 -21 15 -54 27 -87 32 -63 8 -114 37 -387 216 -102 67 -194 127 -205
133 -31 17 -4 14 58 -7 134 -46 247 -49 443 -10 l102 20 73 -21 c108 -29 259
-27 414 6 201 43 186 44 313 -20 133 -67 160 -70 208 -22 28 28 34 42 34 75 0
41 0 41 38 41 70 0 167 -30 295 -92 124 -59 129 -60 168 -49 66 20 93 92 59
156 -19 35 -247 148 -355 176 -113 29 -338 36 -466 15 -87 -14 -103 -14 -180
0 -169 32 -437 9 -692 -60 -91 -24 -217 -38 -279 -31 -31 3 -90 17 -130 31
-85 29 -123 26 -161 -14 -35 -37 -42 -71 -23 -116 10 -25 11 -34 3 -29 -259
161 -500 287 -617 324 -102 32 -296 37 -428 10 -96 -20 -106 -20 -156 -6 -137
40 -308 38 -479 -6 -44 -11 -82 -18 -85 -15 -12 12 53 186 69 186 5 0 36 24
68 54 118 109 168 127 390 146 151 12 209 29 344 97 l91 45 80 -27 c77 -25
282 -120 291 -135 2 -4 -12 -18 -33 -31 -50 -33 -64 -85 -37 -138 17 -30 30
-39 85 -58 94 -31 135 -30 171 6 16 16 29 39 29 50 0 33 14 32 86 -4 121 -62
325 -113 462 -117 67 -1 74 1 101 26 16 16 32 39 36 53 4 19 10 23 23 18 115
-49 260 -83 390 -92 93 -7 125 4 148 49 24 46 18 86 -18 122 -29 29 -41 34
-107 40 -103 9 -237 40 -311 71 -34 14 -134 69 -222 121 -245 147 -363 202
-543 253 -180 52 -389 65 -546 35 -70 -13 -94 -14 -144 -4 -234 47 -489 19
-675 -75 l-69 -35 -11 58 c-6 31 -13 70 -17 86 -3 15 -2 52 2 81 5 43 10 54
28 60 12 4 162 10 332 15 304 8 312 8 420 38 97 27 425 147 659 242 130 51
177 59 276 43 47 -8 137 -25 200 -39z m-2065 -6 c-4 -13 -9 -31 -11 -40 -5
-16 -18 -18 -97 -18 -51 0 -129 -3 -174 -7 l-83 -6 0 36 c0 48 2 49 283 55 87
2 88 2 82 -20z m-589 -45 c-3 -10 -10 -40 -16 -68 -22 -106 -10 -98 -93 -60
-96 44 -191 63 -393 75 -92 6 -174 15 -182 19 -9 5 14 13 64 22 56 10 144 13
299 11 121 -1 240 2 265 7 25 5 49 9 53 10 5 1 6 -7 3 -16z m524 -320 c0 -47
7 -125 16 -171 12 -64 13 -87 4 -92 -6 -4 -48 -10 -93 -13 -72 -6 -178 -30
-228 -51 -14 -6 -18 2 -23 51 -4 32 -11 82 -17 111 -9 47 -8 55 10 78 26 33
27 80 2 121 l-20 32 57 6 c31 3 64 8 72 9 8 2 61 4 118 5 l102 1 0 -87z
m-1615 52 c227 -18 271 -29 384 -93 157 -90 252 -112 304 -72 35 28 52 81 38
122 -6 17 -10 33 -8 34 1 2 33 -3 69 -11 69 -14 120 -37 204 -90 l50 -32 18
-113 c11 -69 15 -129 11 -157 -7 -51 4 -50 -130 -13 -129 35 -258 37 -390 7
l-110 -25 -75 20 c-119 32 -270 35 -385 9 -89 -21 -98 -22 -143 -7 -133 43
-285 45 -433 5 l-80 -22 -77 24 c-65 20 -98 24 -207 24 -193 -1 -306 -38 -506
-170 -115 -75 -139 -110 -119 -171 28 -84 109 -98 205 -34 49 32 66 39 92 34
44 -8 98 20 118 61 18 39 51 52 150 62 l60 6 -25 -27 c-19 -21 -25 -39 -25
-73 0 -38 5 -49 33 -74 52 -47 88 -41 207 36 55 36 106 63 113 60 78 -30 275
-30 447 0 79 14 91 14 148 -2 77 -21 231 -22 383 -3 l112 13 48 -28 c27 -15
83 -54 125 -86 95 -73 157 -105 232 -121 l57 -12 0 -103 c0 -57 -1 -106 -1
-110 -1 -5 -28 -18 -61 -29 -32 -12 -75 -33 -96 -46 l-37 -25 -24 30 c-38 46
-82 59 -216 64 -153 6 -204 -9 -361 -107 l-115 -73 -102 7 c-75 5 -132 3 -212
-9 -97 -15 -122 -15 -215 -3 -171 22 -336 17 -460 -14 -209 -53 -334 -118
-544 -286 -169 -135 -243 -179 -355 -209 -92 -25 -117 -41 -130 -87 -18 -71
30 -136 101 -136 128 0 293 79 483 232 161 128 221 168 319 214 72 33 227 77
252 72 8 -2 -20 -30 -62 -63 -229 -180 -269 -205 -390 -235 -99 -24 -129 -51
-129 -116 0 -39 5 -50 32 -75 l33 -29 -57 -26 c-81 -39 -218 -133 -293 -202
-62 -57 -65 -61 -65 -107 0 -40 5 -51 33 -76 23 -20 43 -29 68 -29 44 0 64 11
134 70 137 117 347 221 495 244 l40 7 -26 -23 c-14 -13 -53 -45 -85 -72 -32
-26 -64 -58 -71 -70 -17 -30 -16 -78 3 -104 15 -21 15 -25 0 -41 -46 -50 -23
-141 42 -168 33 -14 44 -14 119 2 114 24 198 23 258 -4 60 -26 105 -27 138 -1
23 18 28 19 61 5 32 -14 45 -13 138 6 116 23 174 21 244 -11 53 -23 82 -25
119 -8 56 25 73 115 31 165 l-23 28 111 0 c96 0 123 4 195 29 l84 28 91 -28
c77 -25 108 -29 202 -29 l110 0 -9 -60 c-5 -33 -6 -104 -3 -157 l6 -98 -42
-27 c-106 -66 -328 -150 -375 -141 -15 3 134 119 234 181 79 50 78 153 -2 191
-63 30 -87 21 -265 -110 -146 -107 -256 -174 -335 -203 -47 -18 -58 -18 -165
-5 -153 18 -233 17 -330 -2 -73 -15 -90 -15 -213 0 -243 29 -379 16 -509 -50
-131 -66 -191 -124 -386 -366 -181 -226 -248 -297 -331 -353 -85 -56 -111
-109 -80 -167 6 -11 8 -22 5 -25 -2 -3 -146 12 -318 32 l-313 38 -67 65 c-59
58 -70 65 -107 65 -50 0 -84 -21 -101 -63 -12 -28 -17 -31 -44 -27 -17 3 -98
13 -181 23 -130 15 -153 20 -175 40 -35 32 -81 40 -121 20 -33 -16 -59 -21
-59 -10 0 3 8 18 19 32 24 36 72 132 101 207 13 33 24 61 26 63 1 2 40 -15 87
-38 171 -82 341 -90 539 -24 45 15 51 14 108 -5 145 -50 272 -49 453 4 182 52
316 134 457 275 229 231 260 267 260 308 0 74 -66 122 -140 102 -45 -12 -73
-38 -185 -168 -85 -100 -189 -190 -277 -240 -63 -36 -212 -87 -283 -98 l-50
-7 90 90 c203 201 266 273 272 307 12 73 -57 135 -133 122 -33 -6 -53 -22
-124 -99 -160 -172 -227 -235 -298 -281 -39 -25 -77 -46 -85 -46 -7 0 -60 36
-116 80 -57 44 -128 95 -159 114 -173 105 -329 99 -449 -16 l-41 -40 -34 25
c-48 36 -145 84 -201 98 -65 16 -162 7 -217 -21 -99 -49 -166 -148 -260 -385
-50 -127 -105 -230 -134 -255 -8 -6 -22 -10 -31 -8 -13 2 -11 9 11 38 39 52
103 192 184 405 100 262 150 355 241 457 l34 38 125 -59 c302 -141 515 -176
723 -118 l88 24 67 -19 c41 -12 113 -22 187 -25 102 -5 133 -2 207 16 196 49
317 120 473 276 141 140 173 221 112 282 -23 23 -36 28 -79 28 -47 0 -53 -3
-82 -40 -98 -125 -220 -233 -322 -284 -69 -34 -201 -71 -253 -71 l-36 0 82 83
c113 114 143 160 143 213 0 31 -7 51 -24 71 -21 25 -31 28 -81 28 -54 0 -59
-2 -84 -35 -54 -72 -188 -203 -254 -247 l-68 -46 -137 63 c-182 83 -281 119
-376 136 -44 8 -81 16 -83 18 -2 2 13 16 34 32 21 16 70 56 109 91 l71 61 44
-10 c24 -7 114 -12 199 -12 124 -1 167 3 216 17 59 18 64 18 145 1 116 -25
340 -25 424 0 107 32 161 63 180 102 48 101 -49 185 -156 136 -81 -37 -133
-45 -270 -40 -109 4 -134 8 -157 25 -42 31 -58 33 -149 26 -66 -5 -93 -11
-120 -30 -31 -21 -44 -23 -118 -21 l-82 3 78 134 c43 73 85 143 93 156 14 21
23 23 193 29 224 9 196 9 413 1 352 -14 510 28 750 198 58 41 149 113 202 161
88 78 100 86 119 75 32 -17 82 -5 133 33 53 39 71 75 63 124 -8 46 -17 56 -83
94 -71 40 -125 40 -182 3 -22 -16 -89 -73 -149 -127 -182 -167 -341 -276 -458
-314 -55 -18 -196 -41 -185 -29 3 2 34 28 70 56 36 29 108 92 162 142 53 49
108 93 122 98 53 21 76 99 47 155 -19 34 -74 59 -114 51 -61 -12 144 172 398
357 127 92 264 197 305 233 117 104 260 181 422 225 41 11 151 34 244 50 93
16 205 40 249 53 99 30 98 30 330 12z m-1296 -99 c-127 -117 -525 -416 -554
-416 -28 0 -66 -24 -85 -55 -32 -51 -262 -279 -312 -309 -25 -14 -140 -68
-254 -119 -301 -134 -406 -200 -561 -350 l-82 -80 -106 13 c-58 7 -105 17
-105 21 0 17 168 110 304 169 77 34 197 89 266 122 121 59 129 65 240 178 142
144 175 171 429 355 112 82 242 181 288 221 125 110 255 181 418 229 72 22
125 31 114 21z m4569 -306 c40 -12 109 -37 154 -56 91 -39 273 -143 264 -151
-8 -8 -143 26 -206 52 -91 38 -352 193 -305 181 11 -2 53 -14 93 -26z m3890
-106 c211 -76 358 -160 640 -361 72 -52 132 -98 132 -102 0 -3 -9 -12 -20 -19
-17 -10 -37 -4 -142 45 -166 77 -232 117 -444 269 -100 71 -212 148 -250 171
-38 24 -63 43 -56 43 7 0 70 -21 140 -46z m-5568 -43 c0 -5 -11 -33 -25 -64
-29 -62 -63 -83 -119 -74 -34 5 -116 53 -116 68 0 15 68 49 126 63 68 16 134
20 134 7z m-768 -66 c57 -9 138 -35 138 -44 0 -16 -60 -34 -91 -27 -29 6 -112
56 -124 77 -4 6 2 8 17 5 12 -3 40 -7 60 -11z m433 -219 c59 -38 113 -61 173
-71 45 -7 47 -10 36 -77 -5 -26 -13 -39 -28 -44 -25 -8 -195 -102 -216 -120
-12 -10 -25 -11 -58 -2 -36 9 -42 14 -48 45 -12 64 2 215 25 276 22 57 23 58
44 42 12 -8 45 -30 72 -49z m5033 -141 c124 -40 219 -92 387 -210 110 -79 117
-85 86 -85 -46 0 -204 54 -281 97 -70 39 -327 211 -336 225 -10 16 38 7 144
-27z m2127 -240 c50 -24 137 -72 195 -107 182 -111 831 -533 893 -582 22 -17
22 -26 -1 -26 -10 0 -52 -9 -92 -19 l-75 -20 -30 24 c-16 13 -75 64 -130 114
-55 50 -103 91 -107 91 -4 0 -17 18 -29 40 -23 41 -32 47 -86 60 -41 10 -524
319 -530 340 -26 83 -51 104 -124 102 -42 -1 -61 6 -129 46 -60 36 -80 52 -80
69 0 23 23 14 325 -132z m-774 91 c111 -52 113 -54 86 -65 -16 -6 -30 -11 -33
-11 -3 0 -17 -9 -32 -20 -16 -12 -53 -27 -83 -35 -62 -15 -189 -29 -189 -21 0
4 21 32 47 64 25 31 55 76 65 99 10 24 20 43 22 43 2 0 54 -24 117 -54z
m-9858 1 c-97 -88 -221 -179 -303 -225 -91 -50 -145 -64 -219 -56 l-65 7 24
19 c55 44 171 105 358 187 108 48 206 92 217 98 34 19 29 6 -12 -30z m4993 17
c122 -33 464 -227 829 -469 178 -118 187 -126 145 -120 -129 18 -276 89 -525
253 -88 58 -245 159 -350 224 -104 64 -197 122 -205 127 -19 13 33 5 106 -15z
m-1250 -449 c-2 -92 -9 -158 -20 -192 l-17 -53 -59 0 c-38 0 -83 -9 -126 -24
l-67 -25 -43 47 c-24 26 -43 52 -44 59 0 7 13 27 30 46 16 19 34 45 39 60 12
30 0 81 -26 109 -11 13 -19 41 -21 83 -4 59 -3 63 19 70 13 4 34 17 47 28 16
15 33 21 55 19 23 -2 58 10 117 42 l85 44 18 -86 c13 -67 17 -119 13 -227z
m6512 228 c110 -66 384 -243 401 -259 23 -21 -14 -49 -64 -49 -78 -1 -119 -50
-132 -156 -5 -46 -4 -50 31 -85 33 -33 40 -36 82 -32 l46 3 -7 -49 c-18 -142
-116 -304 -250 -416 -82 -68 -287 -157 -404 -176 l-43 -7 74 74 c161 161 244
331 268 549 l11 101 69 66 c79 74 93 108 65 166 -29 61 -110 77 -164 31 -26
-21 -38 -25 -68 -20 -44 7 -77 -7 -106 -46 -18 -24 -21 -45 -23 -180 -2 -170
-13 -218 -71 -329 -74 -142 -212 -270 -355 -328 l-57 -23 -89 47 c-48 26 -129
81 -179 123 -160 135 -311 267 -308 270 1 1 33 -5 71 -14 37 -8 102 -16 144
-17 90 -2 124 15 147 73 l15 38 55 -24 c106 -47 223 -76 335 -81 l107 -6 37
37 c33 33 36 40 31 79 -9 65 -50 97 -126 97 -32 0 -103 11 -157 25 -101 25
-207 74 -559 258 -88 46 -178 91 -200 99 l-40 17 45 -7 c93 -14 312 -7 388 12
72 18 76 18 150 0 102 -25 316 -25 417 0 92 22 218 85 280 141 28 24 51 44 53
45 1 0 37 -21 80 -47z m-7621 -35 c-27 -7 -45 -7 -60 0 -18 9 -11 11 38 10 59
0 60 0 22 -10z m527 -12 c3 -13 9 -62 12 -109 8 -101 3 -112 -77 -174 -86 -66
-169 -112 -240 -134 -81 -25 -112 -54 -115 -110 -2 -38 -8 -46 -124 -148
l-122 -108 -158 68 c-317 137 -497 165 -732 113 -74 -16 -82 -16 -160 1 -46
10 -127 21 -180 24 l-98 6 83 62 c45 34 129 99 187 143 58 45 148 102 200 128
106 52 105 52 325 37 110 -7 128 -6 197 15 76 22 77 22 195 6 65 -9 149 -20
186 -24 l68 -7 -76 -60 c-98 -77 -174 -120 -255 -145 -74 -24 -95 -40 -110
-85 -14 -42 6 -95 44 -120 37 -25 113 -16 207 24 105 44 190 102 407 279 43
34 54 97 27 139 -15 23 -16 28 -4 35 8 5 72 44 143 88 72 44 138 80 147 80 9
0 19 -10 23 -24z m-4327 -240 c111 -10 109 -5 51 -104 -28 -48 -69 -113 -90
-144 -38 -57 -39 -58 -87 -57 -53 2 -75 -7 -111 -46 -20 -21 -25 -37 -26 -82
-1 -55 -2 -57 -50 -97 -27 -22 -102 -87 -167 -143 -65 -57 -123 -101 -128 -97
-6 3 -49 13 -96 23 l-85 17 100 81 c148 122 245 244 373 472 39 69 94 156 121
193 l51 66 36 -37 c33 -35 42 -39 108 -45z m9962 -73 c75 -29 334 -163 328
-169 -2 -2 -43 7 -91 21 -79 23 -386 167 -386 181 0 12 83 -7 149 -33z m2249
-165 c27 -38 57 -57 92 -58 39 0 11 -16 -55 -30 -66 -14 -192 -61 -231 -86
-13 -9 -27 -15 -29 -12 -3 3 -1 36 5 74 5 38 10 113 10 167 l0 97 93 -59 c50
-33 102 -74 115 -93z m-6020 -134 c85 -17 238 -86 344 -155 37 -24 124 -94
194 -154 l127 -110 -41 -3 c-57 -4 -211 49 -297 103 -38 24 -113 80 -165 125
-141 122 -203 173 -230 192 -31 21 -26 22 68 2z m3497 -55 c158 -53 245 -111
502 -337 79 -69 156 -135 173 -146 41 -29 37 -35 -17 -25 -109 21 -256 82
-368 154 -27 17 -113 87 -190 155 -77 68 -174 150 -215 183 l-75 60 50 -7 c28
-4 91 -21 140 -37z m-5475 14 c0 -5 -16 -46 -35 -93 -24 -60 -42 -90 -61 -102
-39 -24 -151 -42 -193 -31 l-35 9 102 84 c117 97 222 160 222 133z m1593 -29
c116 -58 225 -134 346 -240 203 -178 304 -241 481 -300 75 -25 100 -28 210
-29 112 0 134 3 207 28 l82 28 83 -27 c72 -24 99 -28 203 -28 110 0 128 3 215
33 113 39 241 104 287 147 26 25 33 39 33 68 0 21 -4 46 -10 56 -8 15 -2 25
37 60 66 58 170 125 245 159 61 28 266 86 274 78 2 -2 -11 -14 -29 -27 -81
-59 -138 -116 -146 -145 -19 -71 30 -135 104 -135 39 0 51 6 107 55 129 113
239 175 388 220 105 31 143 31 227 0 127 -48 248 -133 477 -335 76 -67 164
-141 196 -164 133 -98 362 -192 527 -216 91 -13 199 -4 315 28 66 19 66 19
159 -5 126 -33 299 -28 429 10 108 32 236 86 313 132 32 20 57 29 54 22 -15
-41 -38 -233 -45 -392 -8 -168 -10 -183 -34 -220 -58 -92 -146 -143 -285 -165
-63 -10 -133 -7 -133 6 0 3 9 19 21 35 11 16 34 59 51 96 53 118 22 203 -75
203 -57 0 -83 -21 -113 -88 -34 -77 -85 -152 -105 -152 -9 0 -64 36 -123 81
-183 138 -278 201 -310 206 -68 10 -121 -38 -120 -109 2 -44 33 -84 94 -120
19 -12 75 -51 123 -87 l88 -66 -58 -3 c-104 -6 -226 53 -422 203 -159 122
-258 185 -292 185 -65 0 -109 -45 -109 -113 0 -44 29 -80 99 -125 31 -20 110
-77 176 -127 150 -114 245 -170 355 -209 79 -29 94 -31 220 -30 118 0 145 4
214 27 l79 26 76 -26 c126 -42 299 -41 422 3 22 7 39 10 39 6 0 -13 -42 -76
-82 -124 -81 -97 -302 -238 -373 -238 -76 0 -341 116 -421 184 -21 18 -50 39
-63 45 -50 27 -132 -16 -144 -76 -7 -38 8 -72 56 -122 l42 -43 -35 7 c-138 29
-356 127 -436 196 -24 21 -53 41 -65 44 -65 21 -139 -35 -139 -106 0 -49 43
-100 141 -165 257 -171 731 -266 1017 -204 41 9 73 9 140 -1 121 -19 347 -16
447 6 156 33 250 73 378 161 43 30 81 54 84 54 3 0 16 -9 30 -20 32 -25 78
-26 126 -1 180 92 335 336 390 616 9 44 25 162 36 262 11 101 28 211 36 245
31 118 134 288 176 288 52 0 109 57 109 110 0 12 -7 34 -15 50 -45 88 -195 74
-286 -27 -103 -114 -176 -267 -214 -449 l-15 -69 5 90 c6 116 44 266 94 369
42 87 128 184 198 223 l39 22 102 -44 c113 -48 332 -165 332 -178 0 -5 -11
-23 -24 -40 -102 -137 -148 -289 -181 -602 -26 -238 -48 -323 -117 -458 -48
-92 -113 -168 -185 -214 -59 -37 -75 -61 -75 -108 0 -43 16 -72 52 -90 57 -29
116 -10 215 71 l60 48 -29 -40 c-126 -169 -274 -317 -417 -417 -53 -37 -100
-67 -103 -67 -3 0 -6 15 -6 33 0 41 -24 75 -65 93 -43 18 -66 10 -161 -52
-104 -69 -252 -139 -334 -158 -101 -24 -106 -22 -55 27 36 35 45 50 45 78 0
48 -20 81 -60 102 -48 24 -81 16 -166 -43 -40 -28 -116 -71 -170 -97 l-97 -47
-107 37 c-59 20 -117 37 -130 37 -47 0 -100 -50 -100 -95 0 -9 -10 -15 -24
-15 -58 0 -204 33 -308 70 -134 47 -165 49 -207 14 -52 -44 -51 -135 3 -169
32 -21 221 -84 316 -106 125 -29 368 -37 483 -15 75 14 97 15 150 4 36 -7 135
-12 237 -12 177 1 182 2 348 50 18 5 22 2 22 -16 0 -12 13 -35 29 -51 42 -41
84 -38 217 14 120 47 237 113 383 215 292 203 633 647 774 1007 101 260 154
475 164 672 l6 121 41 -26 c23 -15 98 -66 169 -115 112 -78 127 -91 127 -116
0 -53 -48 -215 -68 -231 -30 -25 -40 -51 -51 -137 -11 -84 -53 -193 -116 -301
-33 -57 -103 -131 -158 -167 -37 -24 -57 -65 -57 -114 0 -35 -9 -51 -74 -128
-195 -234 -436 -404 -717 -507 -66 -24 -94 -57 -94 -113 0 -38 5 -49 33 -74
44 -39 76 -38 203 12 110 43 213 98 343 185 l79 53 19 -24 c10 -13 33 -27 51
-30 56 -10 243 23 369 65 66 22 121 40 123 40 2 0 6 -13 10 -29 7 -32 39 -65
72 -75 57 -18 344 46 486 108 22 9 36 13 33 8 -3 -6 -47 -27 -97 -48 -102 -43
-129 -71 -129 -135 0 -46 30 -85 76 -98 44 -12 94 5 249 85 263 135 368 243
447 456 34 95 33 145 -3 184 -18 19 -20 26 -9 39 7 8 17 15 22 15 13 0 194
-129 268 -191 l60 -50 -17 -32 c-49 -86 -219 -206 -403 -282 -79 -33 -89 -41
-107 -83 -27 -66 23 -142 94 -142 44 0 161 50 305 132 82 46 134 84 191 139
l77 76 40 -47 40 -47 -29 -54 c-56 -104 -80 -184 -116 -392 -5 -34 -9 -38 -28
-33 -12 3 -55 -6 -97 -21 -65 -22 -94 -26 -211 -29 -75 -1 -146 -5 -157 -8
-14 -5 -28 2 -50 23 -42 43 -73 47 -139 22 -62 -24 -228 -44 -286 -34 -78 12
-148 -24 -160 -84 -7 -40 21 -101 54 -118 20 -11 64 -15 161 -15 142 0 237 15
315 50 l47 21 20 -25 c12 -13 31 -29 43 -35 30 -15 253 -13 336 3 37 7 67 12
67 10 0 -2 -14 -27 -31 -56 -65 -110 -181 -238 -247 -272 -27 -14 -33 -14 -62
0 -45 23 -93 11 -128 -32 l-29 -34 -179 20 c-126 15 -192 27 -222 42 -33 15
-53 19 -80 13 -52 -10 -48 -10 -351 26 -206 25 -269 36 -255 44 46 26 64 54
64 98 0 55 -21 83 -102 138 -33 23 -57 43 -55 46 9 8 140 -29 221 -63 87 -37
181 -90 300 -171 85 -58 113 -64 162 -34 43 26 60 71 46 120 -10 30 -27 48
-89 93 -157 113 -352 208 -506 248 -133 33 -242 39 -747 39 -749 1 -808 -8
-1250 -181 l-205 -81 -140 17 c-111 14 -149 23 -183 43 -59 34 -229 172 -273
221 -20 23 -48 44 -63 48 -74 18 -146 -34 -146 -107 0 -32 7 -48 41 -84 49
-53 53 -52 -110 -30 l-114 15 -66 53 c-36 30 -89 77 -118 105 -47 48 -55 52
-98 52 -40 0 -52 -5 -82 -35 -33 -33 -35 -39 -30 -80 4 -37 2 -45 -12 -45 -9
0 -273 32 -586 70 -314 39 -703 86 -865 105 -162 20 -305 38 -318 41 -12 2
-41 21 -63 41 l-40 36 38 21 c63 36 80 94 43 154 -11 18 -32 37 -47 43 -28 10
-212 7 -231 -5 -12 -7 -108 52 -99 60 2 3 48 11 101 19 149 22 204 39 435 132
l214 86 66 -16 c85 -22 297 -128 431 -215 58 -38 168 -116 245 -173 296 -221
325 -237 380 -219 43 14 65 39 72 84 8 50 -12 90 -60 122 -23 15 -132 93 -242
174 -110 81 -233 169 -274 196 -40 26 -69 50 -64 51 23 8 196 -53 293 -103
143 -73 273 -156 462 -297 260 -194 313 -227 359 -227 57 0 99 42 99 98 0 22
-3 48 -6 57 -4 9 -52 48 -108 87 -55 40 -154 112 -219 161 -296 222 -557 366
-757 416 -63 16 -159 34 -214 41 -128 15 -328 15 -401 0 -45 -9 -79 -9 -159 1
-55 7 -162 13 -236 13 -172 0 -243 -18 -522 -130 -115 -47 -244 -93 -288 -103
-79 -19 -81 -19 -172 0 -68 14 -166 22 -363 29 -453 16 -507 35 -910 321 -301
213 -378 244 -592 232 -67 -4 -112 -2 -139 7 -51 17 -161 88 -199 130 -30 33
-30 33 -5 26 14 -4 138 -11 275 -15 220 -7 258 -10 315 -30 80 -27 198 -90
350 -186 137 -87 216 -127 289 -149 60 -18 195 -21 235 -6 47 17 71 82 52 138
-7 22 -5 22 48 -12 82 -53 184 -102 250 -121 83 -24 216 -18 248 11 15 15 43
24 83 28 33 4 101 18 152 32 l91 26 32 -24 c29 -21 42 -23 186 -26 130 -3 167
0 237 17 116 30 242 94 392 201 202 145 268 185 348 214 l73 27 65 -21 c88
-30 167 -75 306 -177 100 -73 125 -87 165 -91 42 -4 50 -1 78 26 24 25 30 39
30 74 0 57 -14 75 -115 149 -47 34 -85 63 -85 65 0 5 23 0 135 -27 115 -29
203 -74 355 -185 160 -116 195 -126 251 -76 30 26 34 37 34 77 0 43 -4 51 -42
85 -51 45 -200 151 -285 202 -146 89 -387 150 -593 151 -66 0 -160 -6 -208
-13 -77 -11 -106 -10 -218 5 -214 30 -427 3 -632 -80 -80 -33 -149 -75 -332
-206 -253 -180 -347 -215 -553 -204 -113 6 -126 5 -158 -14 l-35 -21 -47 24
c-26 13 -101 59 -167 101 -153 98 -318 179 -420 206 -66 17 -124 22 -330 28
-278 8 -245 1 -525 109 -146 56 -286 83 -445 86 l-129 3 -17 109 c-9 60 -19
132 -23 161 l-7 52 48 14 c26 8 71 20 99 27 l51 13 31 -34 30 -34 107 -3 c73
-3 129 1 181 13 l76 17 51 -35 c29 -19 125 -94 213 -168 89 -74 187 -149 218
-168 129 -77 261 -112 438 -114 103 -2 120 0 144 19 22 16 46 46 49 61 1 1 28
-8 60 -22 89 -35 214 -57 337 -59 l109 -1 35 37 c36 40 43 77 22 122 -20 46
-52 58 -148 57 -116 -2 -230 21 -315 63 -46 23 -130 84 -240 176 -93 78 -194
157 -224 177 -68 45 -167 87 -257 110 -99 24 -294 22 -398 -5 l-80 -20 -75 21
c-110 30 -312 29 -435 -1 -49 -12 -90 -21 -92 -20 -5 6 74 235 95 276 14 28
35 49 62 62 l40 21 47 -29 c142 -90 286 -84 512 22 41 19 78 35 83 35 4 1 40
-15 80 -35z m-1135 -75 c26 -6 52 -12 59 -14 8 -3 3 -31 -17 -92 -16 -48 -34
-116 -41 -150 l-13 -63 -48 0 c-27 0 -62 -7 -78 -15 -31 -16 -60 -61 -60 -94
0 -17 -4 -18 -30 -11 -35 10 -78 0 -119 -29 -16 -12 -32 -21 -36 -21 -10 0 2
107 21 192 11 46 22 71 37 81 12 8 76 63 141 121 66 58 124 106 128 106 5 0
30 -5 56 -11z m8545 -44 c13 -8 81 -40 152 -70 143 -61 516 -265 508 -278 -2
-4 -5 -28 -5 -52 l0 -44 -119 79 c-131 88 -338 220 -346 220 -2 0 -70 37 -150
82 -130 73 -144 83 -127 95 15 11 21 10 41 -2 13 -8 33 -22 46 -30z m-815 -3
c-85 -94 -149 -217 -192 -367 -36 -126 -44 -190 -56 -430 -11 -233 -30 -344
-79 -471 -40 -104 -93 -185 -167 -258 -131 -128 -285 -205 -464 -231 l-45 -7
61 56 c218 197 329 498 339 917 8 335 68 524 211 664 94 93 252 163 373 164
l53 1 -34 -38z m-9128 -49 c30 -11 31 -12 6 -8 -16 4 -43 13 -60 20 -23 11
-25 13 -6 8 14 -3 41 -12 60 -20z m-437 -57 c67 -30 156 -71 197 -90 l75 -35
-67 -1 c-85 0 -265 -35 -288 -55 -15 -13 -24 -11 -91 17 -62 26 -90 32 -171
36 -54 2 -95 8 -93 13 19 29 263 168 298 169 9 0 72 -24 140 -54z m-3613 -291
c0 -3 -21 -35 -46 -72 -67 -98 -105 -179 -199 -423 -104 -273 -133 -329 -212
-407 -71 -71 -64 -69 -219 -51 l-101 11 38 76 c21 42 72 164 113 271 40 107
85 221 99 252 32 72 101 179 156 240 39 44 43 46 72 36 35 -12 86 -4 109 17
35 31 190 72 190 50z m6751 -34 c36 -11 92 -38 125 -59 59 -39 276 -218 282
-233 9 -24 -193 18 -267 55 -67 35 -227 157 -336 259 -17 16 125 0 196 -22z
m7326 -161 c-8 -158 -39 -296 -119 -520 -32 -90 -147 -334 -154 -327 -2 2 7
28 20 58 42 91 76 227 92 364 41 355 59 439 120 542 27 46 27 46 37 22 5 -13
7 -76 4 -139z m977 3 c169 -116 240 -163 354 -235 86 -55 153 -119 207 -197
l48 -70 -17 -93 c-8 -51 -20 -110 -26 -131 -13 -44 -5 -48 -139 66 -107 91
-144 139 -166 212 -8 31 -25 61 -39 72 -13 10 -38 40 -55 66 -57 85 -150 175
-252 244 l-99 67 0 58 c0 32 3 58 6 58 3 0 83 -53 178 -117z m-9674 97 l36 0
18 -127 c10 -71 20 -143 23 -161 l5 -33 -73 8 c-41 4 -122 8 -182 8 -88 0
-107 3 -107 15 0 8 -3 31 -6 51 -6 35 -4 38 47 76 30 22 65 46 79 54 47 26 70
52 76 86 6 29 10 34 28 29 11 -3 37 -6 56 -6z m13770 -161 c57 -141 132 -373
160 -490 l23 -97 -28 -98 c-96 -343 -256 -708 -542 -1239 -83 -154 -174 -326
-202 -382 -28 -57 -53 -103 -55 -103 -6 0 -156 304 -156 317 0 6 29 66 65 132
342 634 518 1094 609 1591 29 158 56 380 56 465 1 57 2 59 15 34 7 -14 32 -72
55 -130z m553 61 c184 -447 248 -747 292 -1355 22 -315 40 -527 90 -1065 57
-615 79 -879 73 -886 -4 -3 -349 35 -355 40 0 0 -6 62 -13 136 -6 74 -29 331
-51 570 -57 627 -65 722 -99 1157 -28 368 -42 502 -71 684 -11 69 -10 87 15
215 40 210 56 327 62 454 5 110 10 147 18 139 2 -2 20 -42 39 -89z m-20959
-205 l7 -130 -39 -95 c-22 -52 -52 -128 -67 -168 l-27 -74 -42 6 c-22 3 -65 8
-93 11 -29 4 -53 10 -53 13 0 4 -5 47 -10 95 l-10 88 56 87 c31 48 102 151
158 229 l101 141 6 -36 c4 -20 10 -95 13 -167z m530 148 c-9 -21 -46 -117 -84
-213 -91 -235 -116 -293 -150 -348 -27 -44 -29 -45 -34 -22 -4 14 -10 61 -14
104 l-9 79 60 91 c62 96 239 346 244 346 2 0 -4 -17 -13 -37z m15682 -277 c39
-39 83 -93 99 -120 28 -48 28 -50 18 -125 -26 -173 -92 -279 -250 -400 -54
-41 -70 -85 -49 -135 l15 -35 -71 -66 c-92 -85 -190 -150 -298 -196 -92 -40
-202 -72 -227 -67 -9 2 11 32 59 88 124 145 334 434 392 543 33 60 148 403
182 539 15 64 17 67 38 56 11 -6 53 -43 92 -82z m-10066 57 c0 -28 -1 -28 -68
-30 l-67 -3 55 30 c69 37 80 37 80 3z m-1702 -82 c-13 -16 -84 -105 -159 -198
-159 -197 -255 -298 -333 -348 -64 -41 -76 -59 -76 -114 0 -31 7 -46 30 -70
l30 -30 -31 -21 -30 -22 -177 21 c-260 32 -244 26 -180 68 81 55 210 190 363
383 76 96 161 196 188 222 94 93 198 137 320 138 l78 0 -23 -29z m-2203 -13
c46 -23 165 -106 165 -115 0 -3 -37 -3 -82 -1 -85 6 -130 20 -205 64 -47 27
-48 45 -4 69 30 17 68 12 126 -17z m-556 -13 c36 -20 77 -45 90 -55 l23 -20
-41 -104 c-54 -132 -104 -217 -161 -270 l-45 -42 -125 14 c-69 8 -127 16 -128
18 -2 1 10 31 26 66 17 35 49 109 71 166 107 270 148 302 290 227z m3791 -1
c59 -9 138 -14 182 -12 l77 5 -67 -39 c-70 -41 -110 -72 -229 -175 -127 -110
-234 -183 -347 -238 -194 -94 -173 -90 -496 -90 -157 0 -303 -4 -325 -9 l-40
-9 45 49 c25 27 107 126 182 219 141 177 231 270 286 299 31 16 40 16 131 2
126 -20 247 -19 341 4 80 20 98 19 260 -6z m11930 -255 c183 -147 356 -305
440 -400 l65 -73 -75 55 c-41 31 -129 94 -194 140 -66 46 -189 143 -275 214
-130 108 -163 142 -198 200 -24 38 -43 73 -43 78 0 9 50 -29 280 -214z m-7000
187 c0 -13 -236 -172 -305 -206 -89 -44 -189 -73 -237 -68 -32 3 -31 4 52 63
125 90 197 131 275 161 88 33 215 62 215 50z m-3776 -78 c-14 -26 -48 -58 -60
-58 -6 0 -19 11 -28 25 -16 24 -16 24 22 30 20 4 42 8 47 10 20 7 26 5 19 -7z
m-624 -53 c-42 -43 -87 -72 -205 -132 -89 -46 -181 -103 -226 -139 -78 -63
-121 -84 -171 -84 -25 0 -14 12 97 103 221 179 259 207 330 243 76 38 152 62
200 63 l29 1 -54 -55z m918 -89 l71 -84 -31 -6 c-53 -11 -123 -7 -171 10 -53
18 -56 23 -27 49 11 10 34 40 51 66 17 27 32 49 34 49 2 0 35 -38 73 -84z
m1440 18 c37 -14 105 -46 152 -71 83 -46 84 -47 55 -55 -39 -11 -112 5 -178
38 -64 32 -197 114 -197 121 0 12 105 -9 168 -33z m-2016 -21 c15 -15 28 -30
28 -34 0 -4 -36 -27 -81 -51 -128 -68 -195 -129 -286 -264 -86 -126 -148 -191
-253 -266 -110 -77 -122 -81 -217 -73 -46 4 -83 10 -81 13 2 4 75 77 163 163
114 111 179 166 227 192 82 46 189 125 337 250 63 53 119 97 125 97 5 0 23
-12 38 -27z m10345 -228 c34 -27 62 -54 62 -59 2 -19 -114 -163 -190 -237 -94
-93 -193 -160 -311 -211 -84 -36 -245 -84 -254 -76 -2 3 25 28 60 57 175 141
344 374 426 585 l33 85 57 -47 c31 -26 84 -69 117 -97z m558 16 c86 -71 222
-175 303 -231 191 -134 278 -206 326 -272 106 -143 147 -196 165 -212 20 -18
20 -18 -9 -70 -41 -72 -69 -153 -90 -257 -11 -50 -21 -93 -23 -95 -8 -8 -59
120 -84 209 -35 130 -72 201 -150 291 -37 43 -91 108 -120 144 l-52 66 6 63
c6 61 5 63 -31 99 -35 35 -38 36 -90 30 -43 -5 -56 -3 -67 10 -8 9 -74 60
-149 112 -74 52 -137 97 -139 99 -6 4 38 143 45 143 2 0 74 -58 159 -129z
m-10644 -17 c23 -14 71 -37 108 -52 61 -24 78 -26 231 -26 l165 -1 60 -32 c33
-17 146 -92 250 -167 288 -205 394 -263 565 -306 133 -34 200 -41 470 -50 289
-9 347 -19 491 -80 74 -31 284 -151 329 -188 l25 -20 -25 4 c-38 7 -3291 404
-3307 404 -7 0 77 89 188 198 197 193 370 342 396 342 7 0 32 -12 54 -26z
m1126 -103 c70 -34 428 -284 412 -289 -24 -9 -197 44 -275 84 -80 41 -326 203
-339 224 -4 6 21 10 67 10 60 0 84 -5 135 -29z m-3302 -177 l-40 -36 -82 7
c-46 4 -83 11 -83 15 0 8 65 35 105 43 11 3 47 5 79 6 l60 1 -39 -36z m844 28
l55 -7 -59 -53 c-33 -29 -75 -63 -95 -76 l-35 -24 -220 28 c-121 16 -222 29
-225 29 -19 5 112 77 175 97 43 14 307 17 404 6z m15406 -292 c9 -135 36 -463
61 -730 65 -705 95 -1053 91 -1056 -2 -2 -72 5 -157 15 -127 16 -157 23 -170
39 -37 45 -109 56 -152 23 -24 -19 -27 -19 -337 19 -172 21 -316 42 -319 45
-9 9 251 525 468 930 103 193 212 400 243 460 64 129 197 427 223 503 18 50
19 51 25 25 4 -16 15 -138 24 -273z m-2360 -115 c328 -363 419 -499 646 -958
l93 -187 -28 -58 c-25 -51 -29 -55 -37 -35 -4 12 -13 58 -19 102 -29 213 -91
315 -265 441 -92 67 -149 125 -200 205 -46 72 -65 118 -99 240 -45 158 -66
193 -219 371 -38 43 -73 88 -79 99 -5 11 3 6 19 -12 15 -17 100 -111 188 -208z
m-8792 -56 c129 -54 462 -268 445 -285 -3 -2 -71 5 -152 15 l-148 19 -73 75
c-40 41 -109 102 -154 135 l-81 61 32 4 c18 2 39 5 46 5 7 1 45 -12 85 -29z
m8185 -485 c17 -34 54 -93 83 -130 43 -57 50 -72 43 -92 -8 -20 -16 -24 -56
-26 -67 -3 -94 -33 -172 -192 -39 -81 -74 -139 -89 -148 -45 -30 -190 -77
-256 -83 l-66 -6 63 69 c93 101 176 233 221 348 36 93 53 160 96 384 9 45 21
95 26 110 10 25 13 21 43 -73 18 -55 47 -128 64 -161z m522 138 c56 -177 169
-335 312 -438 165 -120 189 -154 213 -310 18 -120 30 -165 61 -226 13 -26 24
-49 24 -51 0 -2 -353 39 -356 42 0 1 -17 36 -37 79 -38 81 -66 216 -54 264 4
13 20 44 37 69 38 57 40 106 4 148 -32 38 -81 49 -125 27 l-32 -16 -47 44
c-25 24 -65 56 -89 71 -36 24 -42 33 -37 54 3 14 15 78 26 141 26 139 49 225
59 213 4 -4 22 -54 41 -111z m-21624 -247 c31 -41 52 -44 84 -10 13 14 31 25
41 25 18 0 77 -63 107 -113 18 -30 63 -48 70 -29 2 7 16 12 32 12 46 0 76 16
99 53 l21 34 70 -36 c66 -34 70 -38 76 -78 3 -24 10 -43 15 -43 5 0 6 7 3 15
-7 18 35 30 72 21 38 -10 70 -50 98 -124 37 -100 41 -121 23 -135 -16 -12 -66
-172 -91 -292 -15 -73 -11 -95 24 -145 24 -33 25 -40 6 -40 -7 0 -20 -7 -27
-16 -11 -14 -10 -22 9 -55 29 -50 28 -64 -8 -96 -35 -31 -38 -52 -10 -76 29
-24 25 -48 -12 -79 l-33 -27 40 -40 c23 -24 35 -44 30 -49 -6 -4 -27 -20 -47
-36 -43 -31 -46 -47 -18 -83 29 -38 26 -69 -10 -88 -35 -18 -37 -29 -10 -70
29 -44 26 -72 -10 -90 l-31 -16 22 -37 c13 -20 28 -46 36 -56 10 -17 10 -23
-3 -38 -13 -13 -32 -141 -80 -530 -35 -282 -64 -532 -64 -555 0 -40 15 -66 42
-75 15 -5 -8 -60 -59 -146 -30 -49 -31 -54 -13 -49 16 4 20 1 16 -11 -47 -152
-47 -154 -36 -185 8 -25 -1 -127 -51 -530 l-61 -499 21 -19 c24 -23 19 -45
-18 -76 l-26 -21 20 -37 c25 -48 22 -69 -12 -99 l-28 -25 23 -41 c22 -38 22
-43 8 -63 -51 -70 -49 -62 -26 -107 20 -39 20 -43 5 -66 -8 -13 -20 -24 -25
-24 -20 0 -21 -42 0 -75 22 -36 19 -57 -15 -85 -14 -12 -13 -16 14 -44 46 -48
49 -79 13 -116 -17 -16 -37 -30 -46 -30 -14 0 -14 -4 1 -35 18 -38 14 -55 -29
-107 l-22 -28 23 -30 c25 -34 21 -64 -10 -80 -27 -15 -24 -31 15 -81 l34 -45
-25 -28 c-26 -31 -27 -53 -2 -114 13 -32 13 -35 -13 -57 -31 -27 -36 -65 -13
-105 13 -23 12 -27 -8 -42 l-22 -17 33 -7 c25 -5 32 -11 28 -23 -18 -53 -61
-177 -64 -181 -2 -2 -7 2 -12 10 -11 17 -15 0 -29 -117 -17 -131 -73 -213
-146 -213 -40 0 -65 -22 -65 -56 0 -30 -5 -30 -42 1 -33 28 -64 31 -92 10 -30
-23 -52 -18 -95 20 -21 19 -44 35 -50 35 -6 0 -11 6 -11 13 0 8 -8 21 -18 31
-18 15 -21 14 -58 -15 -82 -65 -126 -74 -164 -34 -28 29 -42 31 -81 8 -41 -24
-75 -9 -123 55 -44 59 -55 61 -126 31 -69 -30 -94 -24 -98 24 -2 20 -8 35 -13
32 -5 -4 -7 -11 -4 -16 13 -20 -10 -7 -49 29 -22 20 -54 47 -70 59 l-28 23 31
35 c17 20 31 39 31 43 0 5 -16 23 -35 42 -41 40 -44 68 -10 98 26 23 26 42 -1
42 -22 0 -17 41 11 83 l26 37 -26 10 c-15 6 -31 10 -36 10 -15 0 -10 26 11 53
23 29 25 58 8 87 -11 17 -7 25 32 65 l45 46 -21 17 c-12 9 -30 22 -39 28 -17
9 -16 13 8 55 30 52 35 89 11 89 -18 0 -13 22 17 82 23 45 25 78 4 78 -20 0
-12 53 16 119 23 52 23 51 4 51 -21 0 -19 15 12 70 25 44 26 52 15 83 -18 51
-15 85 9 98 17 9 20 17 15 42 -19 92 -20 89 28 151 29 36 46 68 46 85 -1 51
-26 124 -45 131 -17 6 -17 7 2 21 15 10 22 30 28 77 6 56 5 62 -12 63 -16 0
-15 2 5 16 25 17 29 59 12 110 -8 20 -8 108 -1 279 l9 249 36 100 c42 116 46
165 16 165 -11 0 -20 6 -20 13 0 29 25 99 71 198 27 59 47 113 43 122 -3 9
-19 19 -35 22 -20 5 -29 13 -29 26 0 11 14 128 30 261 35 281 34 268 15 268
-22 0 -18 24 13 79 26 49 27 50 10 79 -25 41 -23 61 14 148 31 75 31 78 20
145 -17 100 -16 116 13 135 30 20 31 27 5 63 -17 22 -19 32 -11 54 6 15 15 27
21 27 6 0 15 11 21 24 9 20 7 29 -10 53 -25 33 -19 64 18 97 25 22 27 48 6 66
-12 10 -13 16 -1 39 8 14 19 46 26 69 10 39 9 45 -7 57 -17 13 -17 16 9 68 23
48 25 57 13 74 -12 17 -11 28 11 87 28 78 29 86 9 86 -20 0 -19 9 9 71 26 55
26 53 0 186 -18 94 -19 87 21 132 40 44 44 75 13 108 -21 22 -21 25 -9 135 6
62 21 155 31 207 11 52 20 105 20 118 0 17 21 46 63 89 l63 64 39 -40 c22 -22
44 -40 49 -40 6 0 24 14 41 30 l31 30 24 -25 c30 -32 38 -32 90 8 24 17 59 44
79 59 48 36 65 35 97 -7z m18456 -111 c83 -19 186 -60 277 -111 62 -34 241
-152 241 -158 0 -2 -8 -1 -17 1 -10 2 -268 33 -573 69 -305 37 -562 69 -570
72 -32 10 239 104 365 127 108 19 192 19 277 0z m4492 -226 l77 -162 -82 -171
c-45 -93 -85 -174 -89 -178 -9 -10 -291 22 -305 35 -6 6 46 120 149 324 88
173 163 314 166 314 4 0 42 -73 84 -162z m-1469 48 c64 -63 75 -96 50 -138
-26 -44 -15 -106 24 -139 20 -16 37 -44 47 -78 8 -29 14 -55 11 -57 -4 -4
-503 54 -526 62 -9 3 0 14 25 32 86 62 243 253 285 345 7 15 16 27 21 27 5 0
34 -24 63 -54z m-15805 -355 c0 -20 10 -24 103 -36 39 -5 47 -10 47 -28 0 -16
3 -18 12 -9 7 7 21 12 31 12 11 0 35 9 53 21 l33 20 62 -23 c47 -18 66 -31 85
-60 28 -44 47 -48 70 -13 22 33 57 32 82 -2 l19 -27 12 23 c12 21 17 22 80 15
57 -5 69 -4 74 10 7 17 37 22 37 6 0 -5 14 -17 32 -26 31 -16 32 -16 50 5 l17
22 183 -22 183 -22 28 -34 c16 -18 35 -33 44 -33 22 0 11 -80 -14 -98 -15 -11
-16 -14 -3 -22 8 -5 18 -10 23 -10 9 0 9 -46 1 -78 -4 -12 -19 -29 -35 -38
-30 -15 -37 -42 -17 -62 18 -18 -35 -70 -55 -54 -10 9 -22 -1 -54 -51 -84
-126 -203 -267 -244 -287 l-39 -21 15 -30 c9 -16 13 -39 10 -49 -5 -16 -13
-18 -55 -13 l-48 6 5 -40 c5 -36 1 -45 -45 -99 -43 -53 -50 -66 -54 -116 -5
-57 -5 -58 -106 -163 -56 -58 -102 -112 -102 -120 0 -9 -6 -18 -13 -21 -9 -3
-12 -17 -10 -37 4 -32 4 -32 -13 -9 -18 24 -54 30 -54 9 0 -7 7 -23 16 -35 9
-13 14 -24 13 -26 -2 -1 -33 -23 -69 -48 -79 -55 -147 -127 -156 -165 -5 -17
-1 -44 9 -71 l15 -44 -38 6 c-37 6 -38 6 -44 -32 -7 -47 -58 -115 -119 -161
l-45 -33 13 -39 c13 -36 13 -40 -6 -50 -11 -6 -27 -8 -35 -5 -10 4 -14 -2 -14
-20 0 -39 -14 -58 -84 -113 -73 -58 -85 -81 -61 -117 9 -13 13 -29 10 -34 -9
-14 -52 -12 -61 1 -4 8 -14 -1 -25 -22 -9 -19 -45 -65 -78 -104 -126 -144
-170 -202 -196 -253 -14 -29 -45 -72 -68 -96 -23 -24 -73 -94 -111 -155 -96
-155 -132 -201 -160 -201 -17 0 -27 -9 -38 -37 -15 -37 -94 -139 -308 -396
-92 -110 -109 -136 -119 -182 -20 -91 -126 -229 -191 -250 -16 -5 -19 -10 -11
-18 13 -13 15 -77 2 -77 -5 0 -21 4 -35 10 -23 8 -28 6 -42 -21 -9 -17 -21
-61 -28 -98 l-12 -66 -47 -3 -47 -3 0 -55 0 -54 -37 0 c-32 0 -35 -2 -20 -12
15 -12 8 -22 -63 -101 -75 -82 -80 -90 -80 -132 0 -45 0 -45 -34 -45 -39 0
-56 -15 -26 -23 44 -11 20 -40 -169 -206 -68 -60 -72 -66 -70 -101 3 -41 -18
-81 -32 -59 -5 9 -13 1 -25 -23 -9 -20 -27 -39 -38 -42 -13 -3 -29 -21 -39
-45 -10 -22 -45 -63 -83 -96 -69 -61 -99 -106 -91 -136 5 -20 -9 -27 -15 -7
-2 6 -10 -14 -17 -46 -12 -52 -16 -59 -66 -90 -62 -40 -85 -70 -85 -109 0 -24
3 -27 20 -22 14 5 20 2 20 -10 0 -33 -20 -55 -50 -55 -28 0 -30 -3 -30 -35 0
-29 -8 -42 -47 -77 -48 -44 -67 -64 -117 -119 -60 -64 -128 -75 -186 -29 -31
24 -47 30 -89 30 -49 0 -51 1 -51 28 0 17 -10 38 -25 52 -14 13 -25 34 -25 46
0 17 -10 26 -45 40 -25 9 -45 19 -45 22 0 3 9 16 21 28 l21 22 -87 135 c-69
109 -85 140 -80 160 6 21 2 28 -23 41 -42 22 -72 88 -72 159 0 31 -5 59 -11
63 -7 4 -32 50 -56 103 -52 112 -83 155 -124 176 -25 13 -28 20 -23 43 3 15
14 38 24 52 17 25 17 26 -14 62 -17 20 -53 76 -79 126 -42 79 -47 97 -47 152
l0 63 -35 -6 c-37 -6 -45 3 -20 23 21 17 18 23 -82 172 l-86 127 27 31 c29 35
34 71 11 90 -23 19 -18 58 10 82 28 24 32 55 10 84 -21 28 -18 58 10 84 28 26
33 65 10 74 -23 8 -18 52 10 82 29 31 31 55 9 93 -15 25 -13 51 30 402 25 206
46 380 46 387 0 7 -9 12 -20 12 -19 0 -20 4 -14 53 11 95 24 128 70 177 44 47
45 49 25 60 -13 7 -21 21 -21 38 -1 15 -7 44 -14 65 -15 41 -19 33 62 138 37
49 41 69 11 69 -20 0 -21 4 -16 49 8 63 105 261 129 261 9 0 30 -11 46 -25 33
-28 72 -33 72 -10 0 20 19 19 56 -4 28 -17 234 -240 243 -263 2 -5 -6 -19 -17
-31 l-20 -22 30 -90 c16 -49 33 -110 37 -135 6 -41 9 -45 34 -43 21 1 27 -3
27 -18 0 -11 9 -41 19 -67 11 -26 25 -72 31 -102 12 -64 51 -136 109 -202 27
-31 41 -56 41 -75 0 -34 8 -46 37 -62 13 -6 26 -24 29 -39 3 -15 22 -62 42
-106 36 -77 36 -78 54 -56 18 23 41 18 68 -14 20 -25 71 -19 126 15 27 17 102
86 166 152 115 119 118 123 118 167 0 75 17 114 75 175 30 31 55 60 55 65 0 4
19 11 43 15 23 4 34 10 25 12 -10 3 -18 8 -18 12 0 3 26 47 58 96 56 87 131
165 159 165 21 0 15 27 -9 44 -21 15 -21 16 49 83 78 75 93 98 93 140 0 27 2
28 39 25 l38 -4 7 50 c9 66 68 157 144 218 52 43 62 57 77 109 13 43 20 54 22
38 3 -13 9 -23 14 -23 15 0 10 42 -6 60 -14 16 -4 28 120 141 74 68 135 127
135 132 0 4 -9 7 -20 7 -28 0 -15 25 20 40 16 7 35 19 42 27 10 12 8 18 -11
32 -33 25 -21 52 44 95 57 38 66 57 39 87 -16 17 -15 18 15 9 26 -7 31 -6 31
9 0 23 38 80 109 161 99 112 115 138 101 155 -10 13 -9 19 6 38 10 12 20 24
22 26 1 3 9 -5 18 -17 18 -26 42 -29 51 -6 4 11 -2 23 -17 34 l-22 17 42 30
c70 52 132 168 100 188 -19 12 -10 25 19 25 24 0 31 6 45 44 12 32 42 66 114
132 150 136 157 147 126 193 -25 34 -2 52 29 23 l24 -22 13 56 c12 51 15 54
27 38 12 -16 15 -17 24 -4 8 11 12 12 16 3 9 -23 21 -14 27 22 6 32 10 35 44
36 20 0 69 13 107 29 85 35 135 39 135 11z m2576 -344 c12 -6 32 -20 45 -29
18 -12 131 -29 444 -67 231 -29 427 -54 437 -57 25 -8 146 -147 165 -191 10
-24 17 -66 17 -113 0 -64 -5 -89 -38 -170 -41 -102 -40 -83 -20 -271 6 -53 4
-58 -25 -88 -17 -17 -31 -36 -31 -40 0 -13 -129 -1069 -136 -1113 -4 -25 -12
-38 -25 -41 -19 -5 -19 -7 -5 -30 14 -21 15 -37 6 -121 -6 -54 -25 -141 -41
-193 -16 -53 -29 -109 -29 -125 0 -16 11 -89 25 -164 27 -147 27 -148 -27
-217 l-22 -27 22 -45 c30 -63 29 -84 -8 -96 -35 -13 -39 -38 -10 -64 29 -26
26 -62 -8 -79 l-27 -14 -44 -357 c-40 -331 -42 -358 -27 -374 14 -15 18 -58
26 -237 13 -312 20 -349 88 -448 78 -116 176 -231 333 -391 132 -134 141 -141
209 -164 68 -23 73 -27 114 -90 85 -130 82 -89 37 -454 -87 -694 -83 -658 -66
-678 14 -15 14 -18 2 -26 -8 -4 -22 -41 -32 -81 -16 -67 -22 -76 -73 -122 -63
-56 -95 -73 -176 -94 -68 -18 -89 -12 -149 43 -30 27 -107 69 -257 139 -165
77 -226 111 -262 145 -26 24 -89 66 -139 93 -51 27 -109 61 -130 76 -72 52
-608 695 -645 774 -13 28 -27 73 -30 100 -5 32 -17 62 -36 86 -40 51 -96 185
-172 406 -49 147 -66 210 -76 295 -11 95 -16 114 -46 159 -38 56 -39 68 -25
333 5 104 4 136 -8 163 -14 31 -14 33 12 60 26 27 27 35 135 917 108 875 109
890 91 911 -26 27 -24 43 10 95 28 43 31 65 155 984 70 517 129 954 132 972 5
26 16 36 62 61 114 59 234 85 278 59z m4655 -543 l94 -37 66 17 c71 18 98 14
147 -24 29 -24 61 -26 88 -5 28 21 56 18 94 -10 34 -25 37 -26 195 -23 147 2
165 0 219 -21 60 -24 121 -71 158 -123 13 -19 25 -62 34 -121 19 -124 18 -134
-12 -162 -30 -28 2 210 -268 -2005 -86 -701 -159 -1286 -164 -1300 -5 -15 -14
-24 -24 -22 -18 3 -17 8 -49 -248 -17 -141 -25 -177 -39 -187 -10 -7 -23 -36
-30 -65 -7 -29 -30 -109 -52 -178 -31 -98 -49 -135 -79 -172 -46 -54 -53 -74
-70 -178 l-11 -75 -93 -93 c-82 -82 -95 -99 -106 -145 -28 -119 -47 -155 -141
-269 -51 -62 -110 -134 -130 -159 -21 -26 -49 -50 -63 -53 -14 -4 -58 -39 -97
-79 -99 -100 -343 -281 -498 -369 -25 -15 -169 -69 -320 -121 -212 -74 -309
-113 -423 -172 l-148 -77 -95 7 c-82 6 -100 5 -129 -11 -30 -16 -37 -16 -61
-3 -32 17 -95 99 -89 116 2 6 -3 58 -11 115 l-14 103 30 65 c27 60 33 97 75
435 24 204 47 386 49 407 4 24 27 66 68 123 160 222 189 245 345 281 59 13
119 32 132 42 13 10 45 54 70 98 37 66 60 93 121 141 170 135 251 243 313 417
36 103 43 180 24 278 -17 89 -15 94 72 238 28 47 51 92 51 101 0 9 -9 28 -21
43 -26 33 -21 57 14 74 34 16 36 35 2 26 -21 -5 -25 -3 -25 14 0 32 140 1164
146 1185 3 10 16 25 30 33 30 20 33 80 5 115 -18 23 -18 28 5 204 30 230 30
245 4 245 -13 0 -20 7 -20 20 0 17 5 19 25 14 17 -4 25 -2 26 7 0 8 39 332 87
722 l88 707 94 75 c95 74 95 75 156 75 48 0 84 -8 155 -36z m3783 -468 l150
-45 82 -82 c77 -77 82 -84 87 -133 3 -28 9 -78 12 -111 7 -56 5 -62 -19 -84
-14 -14 -26 -32 -26 -41 0 -9 -21 -100 -46 -201 -42 -170 -45 -191 -39 -274
10 -167 10 -168 -26 -235 -45 -85 -109 -153 -166 -178 -26 -11 -86 -28 -133
-38 -74 -15 -101 -15 -215 -5 -71 6 -142 11 -157 11 -50 0 -312 -220 -392
-329 -45 -61 -46 -98 -5 -194 46 -110 185 -349 232 -400 36 -38 57 -50 145
-81 57 -20 123 -49 145 -65 28 -20 60 -32 97 -36 126 -15 206 -38 299 -85 193
-96 374 -168 491 -195 296 -67 958 -239 985 -255 167 -103 212 -124 315 -145
179 -39 212 -51 271 -104 30 -26 107 -91 173 -144 113 -91 122 -96 187 -107
81 -14 70 -3 325 -310 167 -200 171 -206 177 -260 5 -39 28 -99 81 -210 84
-174 121 -294 130 -421 3 -47 13 -126 22 -175 15 -86 15 -96 -12 -321 -20
-167 -31 -233 -41 -233 -17 0 -28 -25 -42 -98 -7 -34 -27 -115 -46 -178 -36
-124 -54 -153 -161 -264 -29 -30 -69 -86 -88 -123 -60 -117 -317 -398 -411
-452 -27 -16 -80 -50 -118 -77 -58 -42 -83 -52 -175 -74 -78 -18 -117 -33
-143 -54 -27 -21 -69 -37 -160 -60 l-122 -31 -336 41 c-325 40 -337 42 -378
71 -23 16 -45 29 -50 29 -5 0 -33 50 -63 110 l-53 110 7 78 c7 77 22 181 32
215 4 14 9 15 19 7 11 -9 15 -5 20 22 6 35 65 522 65 536 0 13 165 97 265 135
88 34 93 34 207 29 143 -6 171 5 283 110 57 53 83 87 112 144 34 69 37 83 41
182 4 106 4 109 -28 172 -48 94 -95 165 -148 222 -55 59 -68 66 -196 109 -54
18 -171 68 -260 112 -228 112 -298 141 -429 176 -201 54 -487 162 -874 332
-233 102 -293 120 -613 183 -250 50 -405 98 -577 181 -235 112 -394 247 -508
429 -22 35 -104 159 -182 274 -102 151 -167 260 -228 384 l-86 173 -9 125 c-6
69 -20 163 -33 210 l-22 85 25 200 c21 170 27 200 41 197 13 -2 19 12 28 59
22 109 101 341 147 427 24 46 75 134 113 196 57 91 84 124 148 177 43 36 119
104 169 150 49 46 110 102 135 124 24 22 63 61 85 88 23 26 49 47 58 47 29 0
164 67 209 103 23 19 68 49 100 67 57 32 64 33 250 47 175 12 196 16 242 40
69 37 106 42 295 38 163 -3 167 -3 314 -49z m1690 -181 c227 -29 222 -27 401
-152 65 -45 130 -81 188 -102 160 -59 189 -76 242 -141 37 -44 78 -77 158
-126 115 -70 122 -78 191 -211 24 -45 56 -88 85 -113 62 -54 60 -53 151 -153
142 -157 182 -233 182 -352 1 -105 -12 -126 -152 -245 -217 -184 -383 -336
-438 -399 -47 -53 -58 -61 -89 -61 -20 0 -75 -5 -123 -12 -67 -9 -105 -9 -159
1 l-72 11 -292 294 c-361 363 -376 374 -517 344 -52 -10 -58 -10 -95 14 -22
13 -78 45 -125 71 l-85 46 -38 96 -38 96 56 457 c31 251 60 460 63 463 4 4 62
50 130 103 84 65 132 96 149 96 15 0 117 -11 227 -25z m3071 -440 c19 -24 34
-26 307 -60 280 -34 288 -34 350 -18 l63 16 105 -45 c97 -42 107 -48 133 -92
15 -27 39 -76 54 -109 46 -108 41 -307 -7 -292 -15 5 -19 -1 -24 -32 -5 -32
-179 -1448 -446 -3633 -87 -709 -129 -1049 -136 -1092 -5 -32 -10 -38 -29 -38
-19 0 -25 -7 -30 -32 -5 -31 -65 -522 -65 -533 0 -3 9 -5 19 -5 11 0 22 -3 24
-8 3 -4 -11 -135 -30 -292 -31 -258 -37 -286 -56 -299 -12 -8 -51 -41 -88 -72
-50 -44 -82 -62 -133 -78 -86 -27 -94 -26 -106 3 -11 29 33 22 -551 92 l-476
58 -56 82 -55 82 -7 118 c-10 159 4 299 26 263 12 -20 15 0 69 445 28 225 53
412 55 416 3 5 14 6 25 3 21 -6 25 5 35 97 14 142 446 3657 450 3669 3 7 11
11 19 8 10 -4 20 54 46 266 18 150 38 316 45 369 10 87 10 97 -5 101 -15 4
-15 21 8 203 l24 199 47 48 c94 99 164 146 268 182 54 18 100 34 103 34 2 1
13 -10 25 -24z m2455 -282 c20 -3 35 -13 38 -25 2 -10 14 -20 26 -23 66 -14
1261 -154 1264 -148 12 34 15 34 339 -6 311 -39 323 -40 392 -25 l72 14 100
-40 c55 -22 105 -40 112 -40 7 0 32 -25 56 -56 l43 -55 10 -152 9 -152 -35
-99 c-41 -111 -43 -132 -19 -158 15 -17 15 -31 -6 -206 -13 -103 -27 -209 -32
-236 -11 -59 -52 -116 -123 -172 -53 -42 -53 -42 -177 -53 l-124 -12 -85 35
c-82 33 -104 37 -639 101 -508 62 -558 66 -607 55 -73 -18 -144 -9 -318 39
-157 43 -241 51 -302 29 -26 -9 -73 -6 -251 15 -203 25 -219 28 -240 51 -57
66 -89 243 -78 431 17 287 78 632 130 735 32 63 132 140 183 141 20 0 57 4 82
8 59 11 139 13 180 4z m-17323 -1228 c12 -9 33 -34 45 -58 20 -37 22 -58 24
-187 1 -114 5 -163 22 -227 27 -100 27 -121 3 -147 -12 -14 -27 -60 -40 -131
-12 -60 -24 -120 -26 -132 -3 -12 -14 -24 -24 -28 -15 -4 -21 -19 -26 -68 -4
-34 -16 -107 -26 -162 -11 -55 -29 -214 -40 -352 -20 -234 -20 -254 -5 -277
22 -35 20 -59 -9 -86 -33 -31 -32 -58 5 -127 36 -67 37 -83 7 -148 -18 -39
-21 -56 -13 -77 8 -23 3 -36 -37 -100 -25 -40 -44 -75 -42 -77 2 -2 18 1 34 7
29 10 31 9 31 -12 0 -13 -9 -31 -20 -41 -24 -22 -27 -80 -5 -89 8 -3 15 -12
15 -21 0 -21 -26 -19 -50 5 -11 11 -22 20 -25 20 -11 0 -4 -46 10 -64 22 -29
18 -52 -11 -79 -26 -24 -26 -27 -19 -107 7 -80 8 -81 31 -76 30 8 31 -3 1 -29
-26 -22 -77 -130 -77 -163 0 -12 5 -24 10 -27 22 -13 8 -25 -28 -25 -39 0 -39
0 -57 -60 l-18 -59 -29 24 c-33 28 -72 32 -94 10 -23 -22 -51 -18 -76 10 -24
28 -54 32 -82 10 -28 -21 -49 -19 -76 10 -26 28 -65 32 -94 10 -29 -22 -50
-18 -87 12 l-32 28 6 -38 c7 -42 -1 -46 -26 -16 -20 23 -40 20 -94 -17 -44
-29 -74 -30 -99 -3 -14 16 -26 19 -49 14 -62 -12 -70 -11 -73 12 -4 25 -37 53
-64 53 -9 0 -32 -16 -51 -35 -32 -33 -34 -34 -58 -18 -13 9 -47 38 -76 66 -38
37 -60 50 -83 51 l-31 1 6 47 c6 39 2 56 -24 110 -17 34 -31 74 -30 88 l0 25
11 -22 c7 -14 20 -23 35 -23 27 0 31 33 8 64 -21 28 -19 51 10 82 30 32 31 60
8 151 -13 53 -14 72 -5 98 17 45 15 85 -3 85 -20 0 -8 28 16 35 10 4 19 13 19
21 0 8 11 37 25 64 29 57 31 78 10 106 -21 28 -18 58 10 84 28 26 31 53 10 90
-23 41 -18 55 27 70 58 21 64 35 52 122 l-10 73 76 75 c69 68 83 89 105 155 5
16 8 17 15 5 6 -10 11 -2 16 25 5 30 24 58 79 115 72 75 105 124 105 155 0 8
4 15 10 15 5 0 12 17 16 38 8 47 24 64 95 108 65 39 81 60 116 152 13 37 31
71 39 75 8 4 14 16 14 25 0 10 22 41 48 70 27 29 64 80 83 112 33 59 46 67 95
61 6 -1 17 19 24 44 7 24 37 87 66 140 30 52 54 100 54 105 0 5 14 23 30 40
17 17 30 37 30 45 0 8 5 15 10 15 6 0 30 18 54 40 32 30 52 40 77 41 19 0 52
4 74 9 48 10 91 5 122 -15z m17053 -1246 c32 -7 50 -16 50 -25 0 -8 6 -17 13
-19 6 -3 287 -39 622 -80 502 -62 612 -73 620 -62 13 18 357 32 430 18 188
-36 281 -130 307 -310 10 -71 8 -92 -30 -316 -23 -132 -55 -343 -72 -468 l-30
-229 -77 -84 c-90 -99 -122 -114 -206 -96 -96 21 -1647 232 -1705 232 -47 0
-72 -7 -139 -41 -78 -39 -84 -40 -120 -29 -62 20 -121 59 -189 124 -60 58 -64
64 -64 106 0 58 45 424 54 438 4 6 13 9 21 6 16 -7 18 2 44 218 17 142 18 161
4 200 -26 76 2 190 75 303 37 58 37 58 137 91 107 35 172 41 255 23z m-8456
-1229 c112 -17 256 -111 301 -199 13 -25 46 -71 73 -101 27 -30 72 -84 101
-120 114 -143 201 -193 384 -221 229 -34 264 -45 323 -101 29 -27 64 -66 79
-88 l26 -38 -61 -504 c-50 -404 -66 -509 -81 -534 -25 -41 -84 -89 -179 -147
l-75 -45 -218 28 c-181 23 -222 31 -240 48 -37 34 -171 109 -399 223 -192 96
-218 112 -218 133 0 13 -8 34 -19 47 l-18 23 -12 -23 c-12 -22 -13 -21 -74 31
-137 119 -267 277 -267 325 0 23 -10 37 -50 67 -68 52 -155 147 -215 235 -49
71 -50 75 -53 155 -3 72 -6 83 -29 102 l-25 21 31 59 c34 68 226 280 276 306
18 10 42 28 52 40 10 13 35 32 55 42 21 10 40 27 43 37 5 14 16 19 40 19 31 0
36 4 54 45 45 101 65 115 198 134 81 12 118 12 197 1z m8447 -1495 c294 -36
540 -68 547 -70 6 -2 12 -11 12 -19 0 -17 12 -21 110 -36 91 -14 152 -12 176
4 18 13 68 9 425 -35 334 -42 410 -48 437 -39 77 27 132 24 217 -12 44 -19 92
-38 107 -42 25 -6 113 -99 137 -144 5 -11 -12 -184 -50 -491 -32 -260 -59
-474 -61 -476 -2 -1 -49 -39 -105 -83 l-101 -81 -77 6 c-64 5 -84 3 -111 -12
-34 -18 -40 -17 -592 49 -306 37 -565 70 -574 72 -13 4 -21 -3 -28 -20 -5 -14
-12 -26 -16 -26 -3 0 -188 23 -411 50 -223 28 -416 50 -430 50 -14 0 -31 -7
-37 -15 -9 -13 -25 -14 -114 -5 -143 15 -235 53 -370 153 -37 28 -42 36 -38
62 3 17 17 131 33 254 22 181 31 229 45 243 31 31 35 59 25 168 -14 152 14
284 87 415 27 50 44 67 102 102 38 23 81 42 95 42 15 1 267 -28 560 -64z
m-21812 -225 c85 -11 156 -22 159 -24 2 -3 -1 -105 -7 -228 -64 -1246 -71
-2075 -31 -3798 32 -1372 32 -2256 0 -2728 -35 -525 -135 -1362 -225 -1897
-58 -345 -221 -1088 -354 -1614 l-46 -185 -145 -66 c-80 -37 -169 -81 -198
-98 -29 -18 -54 -32 -56 -32 -1 0 24 102 56 228 111 435 302 1290 362 1617 90
491 199 1384 241 1970 40 568 41 1455 3 2920 -16 612 -17 2623 -1 2950 7 138
20 414 29 615 9 201 18 371 20 378 4 16 12 16 193 -8z m537 -73 c7 -8 15 -124
23 -317 16 -410 34 -744 76 -1370 59 -893 76 -1275 95 -2085 6 -247 15 -641
20 -875 39 -1654 16 -2418 -95 -3137 -73 -472 -226 -1064 -359 -1397 -31 -76
-56 -152 -56 -168 0 -21 11 -41 35 -65 33 -33 39 -35 80 -30 25 2 52 10 61 18
57 47 195 450 308 899 142 562 203 991 248 1735 18 301 16 1435 -5 2310 -35
1506 -50 1863 -112 2780 -41 610 -85 1435 -85 1607 l0 74 124 -15 125 -15 5
-60 c3 -34 8 -140 11 -236 8 -217 21 -359 36 -394 7 -14 29 -34 50 -43 32 -15
39 -23 39 -48 0 -49 28 -487 60 -965 58 -864 72 -1217 100 -2515 30 -1382 33
-1743 21 -2137 -22 -713 -65 -1145 -162 -1631 -75 -380 -205 -849 -304 -1097
-30 -75 -55 -149 -55 -164 0 -93 109 -138 177 -74 29 27 127 275 186 473 211
698 302 1223 357 2065 21 307 23 1258 6 2050 -40 1850 -49 2081 -121 3170 -49
746 -90 1548 -80 1559 3 2 60 -2 127 -10 l123 -14 6 -30 c4 -16 7 -71 8 -121
2 -136 21 -404 32 -447 11 -41 56 -77 97 -77 36 0 80 27 97 61 14 26 15 46 6
142 -6 62 -13 187 -17 280 l-7 167 29 -5 c36 -7 433 -55 450 -55 7 0 15 -15
18 -32 9 -56 35 -560 71 -1418 41 -971 57 -1292 90 -1885 31 -545 46 -1045 38
-1225 -5 -121 -4 -140 12 -168 36 -60 114 -71 167 -23 l33 29 5 149 c8 238 -7
728 -39 1313 -33 587 -59 1125 -91 1915 -18 441 -32 731 -56 1188 l-7 127 44
-6 c24 -3 105 -13 179 -22 l135 -17 7 -95 c11 -152 36 -689 63 -1330 36 -861
52 -1200 80 -1695 40 -709 45 -852 45 -1195 0 -352 0 -350 57 -379 49 -25 120
-3 141 44 31 68 24 609 -18 1339 -27 471 -56 1062 -80 1636 -30 727 -60 1369
-69 1515 -5 72 -8 131 -7 132 0 1 190 -22 422 -50 l420 -51 -4 -271 c-7 -432
13 -897 77 -1817 11 -156 25 -371 31 -478 23 -419 41 -711 50 -840 32 -410 71
-850 80 -882 19 -69 92 -98 159 -63 56 28 57 45 27 388 -45 519 -55 661 -86
1212 -17 292 -39 654 -50 805 -57 802 -71 1123 -69 1592 l1 328 36 -5 c21 -3
93 -12 161 -21 69 -8 128 -17 132 -19 21 -14 28 -125 33 -535 5 -442 12 -599
61 -1300 48 -672 72 -1161 61 -1205 -34 -136 22 -1195 69 -1285 40 -76 154
-69 191 13 8 18 24 44 35 59 27 33 27 49 -6 407 -35 398 -52 630 -80 1126 -13
242 -27 474 -30 515 -49 682 -85 1285 -84 1410 0 86 -4 93 75 -110 31 -80 89
-219 129 -310 122 -275 695 -1419 838 -1672 l135 -238 7 -167 c10 -263 33
-796 60 -1418 63 -1436 49 -2011 -61 -2425 -98 -372 -342 -672 -793 -975 -165
-111 -268 -168 -443 -244 -194 -85 -189 -85 -116 6 245 302 382 712 427 1278
14 170 31 746 30 1050 0 286 -10 422 -34 459 -24 36 -84 53 -125 36 -64 -27
-63 -12 -61 -533 3 -932 -31 -1308 -151 -1677 -82 -253 -191 -424 -406 -639
-102 -102 -158 -167 -166 -189 -12 -33 -20 -38 -127 -79 -63 -24 -287 -102
-499 -173 -212 -71 -469 -158 -572 -194 -104 -36 -188 -62 -188 -58 0 5 16 24
36 43 227 217 452 857 519 1479 16 154 30 551 45 1325 6 297 15 611 20 698 5
98 4 172 -2 193 -20 73 -121 96 -177 40 -23 -24 -26 -34 -32 -153 -8 -143 -24
-725 -39 -1423 -11 -501 -19 -621 -51 -830 -55 -355 -149 -672 -274 -925 -99
-200 -191 -307 -334 -388 -69 -39 -94 -78 -86 -134 l6 -41 -133 -32 c-356 -85
-571 -132 -745 -165 -105 -19 -256 -53 -335 -75 -251 -70 -368 -98 -568 -135
-318 -59 -516 -110 -719 -184 -47 -17 -86 -29 -88 -27 -2 2 14 82 37 177 127
532 249 1088 294 1336 104 568 215 1507 258 2198 19 298 15 1611 -8 2560 -22
936 -26 2592 -7 3015 7 146 20 435 30 643 l17 379 76 -7 c41 -4 80 -12 86 -18z
m4433 -535 l133 -17 24 -65 c13 -36 69 -195 125 -355 181 -517 275 -737 540
-1263 98 -195 217 -435 265 -535 104 -216 187 -372 339 -642 l113 -200 10
-295 c6 -162 10 -296 8 -297 -5 -5 -176 288 -294 502 -61 110 -169 304 -242
430 -118 208 -680 1320 -802 1590 -88 193 -177 412 -252 624 -115 322 -186
527 -186 539 0 8 14 10 43 6 23 -3 102 -13 176 -22z m5574 -684 c2842 -348
5167 -635 5167 -638 0 -17 -162 -286 -274 -455 -323 -486 -714 -964 -1037
-1267 -192 -180 -356 -312 -699 -560 -618 -447 -1574 -1004 -2410 -1403 -311
-149 -367 -174 -497 -219 -211 -73 -702 -180 -888 -193 -203 -14 -695 80
-1045 199 -244 84 -568 255 -785 416 -161 120 -452 419 -631 648 -247 317
-382 526 -637 984 -96 173 -227 407 -291 520 -64 113 -157 290 -208 394 -51
105 -190 384 -309 620 -219 439 -354 740 -455 1017 -77 212 -194 549 -194 560
0 5 6 9 13 9 6 1 2337 -284 5180 -632z m5705 -703 c8 -7 -115 -211 -235 -393
-303 -457 -728 -977 -1027 -1256 -192 -178 -263 -237 -540 -444 -411 -306
-756 -531 -1347 -875 -460 -268 -924 -512 -1383 -726 -186 -87 -384 -166 -392
-158 -3 2 46 28 108 57 146 67 708 357 874 450 594 333 1159 686 1549 970 466
338 706 547 979 849 410 454 875 1101 1068 1485 17 34 34 66 39 72 6 7 52 5
156 -8 81 -11 149 -21 151 -23z m615 -70 c73 -9 142 -18 155 -21 l22 -4 -21
-29 c-24 -32 -29 -89 -11 -123 10 -19 9 -56 -5 -193 l-18 -170 -115 -60 c-97
-50 -127 -72 -192 -139 -43 -43 -78 -73 -78 -65 0 23 81 793 86 807 4 15 17
15 177 -3z m-428 -272 c-49 -465 -76 -688 -120 -999 -79 -547 -99 -810 -140
-1819 -8 -203 -20 -437 -25 -520 -45 -675 -60 -1287 -41 -1655 55 -1047 220
-1618 654 -2270 385 -577 635 -847 1025 -1105 40 -27 71 -51 70 -55 -17 -42
-490 -394 -963 -716 -822 -560 -1475 -943 -2030 -1189 -273 -121 -849 -329
-1165 -421 -710 -207 -2380 -531 -3205 -623 -794 -89 -1078 -74 -1945 99 -851
170 -976 213 -1922 653 -540 252 -643 310 -1613 898 -488 297 -639 393 -887
565 -115 79 -304 210 -420 291 -399 275 -523 366 -818 602 -162 130 -368 292
-457 361 -89 69 -160 126 -158 128 1 2 148 36 326 77 412 95 526 127 834 232
138 47 417 140 620 208 707 234 1354 491 1603 636 447 259 788 588 948 914
119 243 168 468 206 935 17 215 14 949 -6 1405 -8 204 -18 444 -22 535 l-6
165 68 -75 c135 -151 431 -438 516 -501 176 -130 461 -295 652 -375 298 -126
671 -222 1071 -276 161 -21 201 -22 755 -22 760 0 957 16 1247 99 331 95 656
232 1183 498 421 212 556 286 940 510 672 393 964 584 1440 943 237 179 348
273 524 444 246 239 490 524 756 880 153 206 374 538 460 691 36 64 66 112 68
108 2 -5 -8 -120 -23 -256z m1190 57 c13 -7 35 -12 49 -12 14 0 26 -2 26 -4 0
-14 -476 -221 -486 -212 -2 3 2 58 9 123 l12 119 110 18 c61 9 135 26 165 36
l55 19 18 -37 c10 -20 29 -43 42 -50z m615 45 c30 -3 68 -9 84 -12 l28 -5 -28
-20 c-57 -38 -191 -102 -393 -185 -254 -105 -254 -105 -153 -49 104 57 209
136 292 221 53 54 69 65 90 61 14 -3 50 -8 80 -11z m687 -83 c122 -16 224 -30
226 -32 3 -3 10 -327 16 -721 7 -393 19 -900 27 -1125 24 -649 28 -1547 14
-2534 -18 -1196 -19 -2207 -2 -2415 60 -743 133 -1125 277 -1441 51 -113 120
-218 150 -232 78 -36 155 14 155 99 0 20 -17 62 -44 108 -174 304 -250 649
-318 1456 -17 197 -16 1350 2 2450 15 911 9 1870 -14 2505 -18 480 -42 1807
-33 1816 6 6 208 -12 255 -23 20 -5 22 -11 22 -72 0 -73 22 -124 59 -136 19
-6 21 -14 21 -108 0 -249 21 -1124 37 -1562 20 -523 25 -2092 9 -2607 l-8
-267 -29 14 c-53 28 -114 13 -146 -34 -16 -23 -18 -65 -21 -403 l-4 -378 35
-35 c39 -39 78 -45 127 -20 l30 16 0 -418 c0 -567 17 -858 75 -1313 60 -460
148 -758 302 -1013 51 -85 106 -107 170 -67 43 26 62 85 41 126 -9 16 -38 72
-66 124 -143 271 -221 618 -277 1244 -36 392 -37 949 -5 3146 10 729 4 1183
-25 2050 -9 239 -18 713 -22 1053 l-6 617 29 0 c16 0 76 -7 134 -15 58 -8 108
-15 113 -15 4 0 7 -17 7 -38 0 -73 68 -124 136 -102 40 13 74 53 74 86 0 17 6
24 19 24 11 0 202 -22 425 -50 223 -27 408 -50 411 -50 14 0 -6 -422 -50
-1075 -35 -519 -47 -748 -70 -1365 -15 -372 -38 -819 -90 -1690 -57 -965 -69
-1223 -81 -1740 -15 -665 61 -1406 187 -1835 73 -249 99 -291 180 -289 47 2
83 30 99 79 9 27 6 44 -19 112 -118 321 -195 816 -223 1437 -17 389 3 1051 62
1986 11 173 24 398 30 500 6 102 21 381 35 620 13 239 31 615 39 835 9 220 18
447 21 505 15 299 29 535 55 930 16 239 35 553 41 698 8 158 16 262 22 262 19
0 342 -42 345 -45 6 -6 -24 -537 -58 -1040 -25 -355 -46 -769 -60 -1140 -16
-460 -59 -1270 -120 -2260 -83 -1363 -80 -1924 16 -2633 53 -398 157 -778 225
-826 36 -25 101 -21 132 8 41 38 42 79 7 175 -116 315 -197 851 -220 1461 -14
362 9 1104 55 1820 8 124 28 466 45 760 17 294 35 612 40 705 5 94 19 400 30
680 22 562 38 870 75 1410 13 198 30 471 36 607 7 137 13 247 14 245 1 -1 -2
-452 -6 -1002 -9 -1021 1 -2643 21 -3325 9 -324 23 -716 50 -1475 18 -490 28
-1370 19 -1741 -8 -359 -23 -621 -59 -1044 -10 -124 -24 -288 -30 -365 -7 -77
-13 -146 -16 -153 -2 -9 -20 -4 -61 16 -83 42 -192 80 -313 108 -58 14 -166
43 -240 64 -74 21 -211 60 -305 85 -93 26 -296 89 -450 140 -154 51 -352 109
-440 130 -589 138 -804 208 -1160 379 -366 176 -792 460 -1028 686 -103 98
-107 104 -107 144 0 24 -11 76 -25 117 -37 106 -111 414 -134 554 -36 217 -43
316 -47 658 -4 367 -7 389 -60 418 -54 29 -135 6 -153 -44 -4 -12 -7 -179 -6
-372 3 -384 15 -530 66 -779 15 -77 26 -142 25 -144 -6 -5 -176 252 -261 393
-214 355 -352 762 -419 1240 -53 377 -70 652 -70 1140 0 419 6 602 39 1100 8
121 24 434 35 695 42 983 57 1190 126 1658 l26 174 41 36 c80 69 154 149 206
219 30 42 71 84 99 102 70 44 227 116 472 216 376 152 562 254 664 364 37 38
34 38 323 3z m-1512 -364 c-61 -32 -100 -62 -164 -127 l-84 -86 8 65 c4 36 8
66 9 67 6 6 292 122 301 122 6 0 -26 -18 -70 -41z m5073 -73 c70 -8 141 -17
158 -20 l30 -5 0 -1708 c0 -1860 9 -2416 64 -3792 22 -572 32 -1174 27 -1723
-5 -582 -13 -749 -57 -1267 -10 -124 -28 -337 -39 -475 -12 -137 -28 -326 -36
-420 -9 -93 -16 -195 -18 -225 l-2 -55 -49 90 c-69 127 -115 193 -201 285
l-75 80 5 52 c10 101 64 754 79 958 30 405 36 594 36 1190 0 627 -6 915 -40
1820 -47 1262 -64 2491 -55 3960 6 1134 10 1270 32 1270 8 0 72 -7 141 -15z
m-5542 -182 c-4 -38 -29 -223 -56 -413 -27 -190 -56 -417 -64 -505 -19 -199
-51 -749 -71 -1250 -9 -209 -24 -519 -35 -690 -35 -557 -43 -835 -37 -1250 10
-776 87 -1306 259 -1785 114 -319 264 -587 562 -1005 299 -420 449 -576 788
-818 l146 -105 -29 -28 -29 -27 -52 28 c-86 47 -222 131 -352 217 -397 264
-580 445 -878 869 -531 752 -672 1160 -760 2184 -17 196 -17 1057 0 1345 7
118 19 314 27 435 8 121 24 438 35 705 37 873 56 1135 115 1541 l32 225 98 95
c54 52 122 127 152 167 31 42 73 85 100 103 26 16 49 29 51 29 3 0 2 -30 -2
-67z m-10116 -1318 c121 -205 387 -581 538 -759 162 -190 424 -452 550 -549
77 -60 237 -163 350 -227 51 -29 91 -55 88 -57 -9 -9 -243 84 -371 147 -335
166 -497 281 -750 535 -201 201 -286 296 -407 456 l-66 87 -6 88 c-3 49 -8
166 -11 259 l-6 170 19 -30 c10 -16 43 -70 72 -120z m-381 -304 c74 -106 101
-153 101 -175 0 -17 12 -281 26 -586 14 -310 28 -771 31 -1045 14 -1194 -76
-1562 -482 -1971 -193 -194 -463 -388 -710 -509 -110 -54 -466 -205 -484 -205
-3 0 42 26 99 58 251 140 454 289 644 472 333 321 483 641 540 1150 58 512 51
1041 -34 2885 -6 116 -10 246 -10 289 l0 79 89 -149 c49 -82 134 -214 190
-293z m-4348 -5702 c71 -48 441 -336 694 -540 254 -205 287 -229 800 -586 571
-397 736 -507 995 -664 113 -69 354 -216 535 -326 680 -415 1008 -591 1616
-869 120 -55 216 -101 214 -102 -14 -15 -874 372 -1286 579 -280 140 -394 206
-1287 748 -542 329 -522 316 -1322 871 -415 288 -442 308 -750 555 -124 99
-285 227 -358 284 -73 57 -131 105 -129 107 2 2 27 10 57 17 51 13 57 13 108
-10 30 -13 81 -42 113 -64z m-306 -207 c132 -103 319 -250 415 -328 252 -202
329 -259 775 -569 490 -341 802 -551 1000 -672 83 -50 296 -180 475 -289 855
-520 1043 -621 1880 -1001 608 -277 806 -338 1630 -503 346 -69 565 -104 845
-136 198 -22 1260 -32 1595 -14 705 36 1500 152 2640 386 942 193 1252 274
1820 476 510 181 867 339 1315 583 536 291 1408 859 2046 1332 92 68 171 123
177 123 5 0 54 -21 108 -46 81 -38 323 -136 384 -157 12 -4 11 -6 -5 -12 -11
-3 -29 -10 -41 -15 -11 -4 -44 -50 -74 -100 -185 -321 -735 -933 -1230 -1371
-245 -216 -454 -396 -561 -481 -52 -41 -104 -86 -117 -100 -47 -51 -45 -129 4
-167 41 -32 116 -25 149 14 6 7 64 56 130 111 228 187 595 509 809 709 114
107 268 266 425 440 48 53 51 55 31 20 -144 -245 -655 -951 -1007 -1390 -518
-647 -899 -1036 -1293 -1320 -226 -164 -660 -439 -985 -625 -279 -159 -614
-315 -990 -459 -202 -77 -201 -77 -220 -118 -34 -71 15 -153 91 -153 28 0 198
61 443 159 49 20 53 20 46 4 -5 -10 -10 -35 -13 -55 -3 -33 1 -43 31 -73 25
-25 44 -35 67 -35 63 0 591 216 905 370 371 182 1034 590 1391 855 455 338
960 887 1601 1741 486 648 769 1072 992 1489 108 203 115 233 65 286 -23 24
-36 29 -73 29 -25 0 -54 -7 -65 -15 -10 -7 -61 -94 -113 -192 -127 -238 -193
-347 -414 -678 -531 -799 -1287 -1740 -1724 -2149 -243 -228 -418 -363 -730
-568 -562 -369 -949 -584 -1385 -770 -271 -115 -321 -131 -145 -45 359 175
1062 607 1411 867 478 356 960 881 1633 1780 474 632 748 1045 974 1466 96
179 106 218 65 269 l-22 28 27 47 c34 60 36 116 5 156 -17 21 -18 26 -6 22 54
-21 361 -103 518 -138 251 -57 327 -78 600 -170 282 -94 625 -195 854 -250
199 -48 295 -83 406 -150 401 -241 615 -663 623 -1230 l2 -145 -50 0 c-64 1
-96 24 -182 130 -156 194 -255 403 -421 897 -106 312 -119 335 -194 353 -34 9
-91 -18 -109 -51 -17 -33 -15 -85 5 -116 9 -13 45 -109 80 -214 202 -598 345
-883 540 -1080 96 -96 150 -125 248 -132 l71 -5 -7 -80 c-23 -277 -135 -750
-277 -1172 -380 -1125 -1161 -2606 -2135 -4047 -246 -364 -300 -435 -428 -564
-800 -799 -2764 -1382 -5486 -1628 -1748 -159 -3468 -159 -5290 -1 -1531 133
-2889 363 -3948 670 -285 82 -529 163 -495 164 12 1 35 13 52 27 51 43 51 115
-1 164 l-23 22 35 -15 c19 -8 89 -40 155 -70 160 -73 307 -127 346 -127 44 0
99 56 99 101 0 65 -28 92 -131 129 -108 38 -350 145 -508 224 -123 62 -290
171 -373 244 -64 56 -104 70 -144 50 -63 -31 -85 -106 -48 -163 40 -61 256
-212 449 -312 66 -34 117 -63 113 -63 -18 0 -225 83 -358 144 -291 135 -457
232 -580 342 -32 29 -68 55 -80 59 -67 21 -140 -35 -140 -108 0 -38 6 -47 68
-107 97 -94 259 -199 477 -306 105 -51 187 -94 183 -94 -17 0 -327 139 -478
216 -277 139 -495 278 -694 442 -122 101 -409 390 -528 532 -658 789 -1231
1928 -1663 3310 -118 379 -282 966 -272 976 2 3 17 -30 32 -73 51 -148 273
-699 358 -888 70 -158 89 -194 117 -212 39 -27 70 -29 110 -8 31 16 60 61 60
94 0 11 -39 107 -86 213 -114 257 -338 820 -412 1038 -64 189 -124 396 -167
580 -32 134 -53 182 -90 198 -32 15 -80 15 -107 1 -11 -6 -21 -9 -23 -7 -6 6
-73 417 -99 603 -57 410 -72 798 -46 1202 l13 201 82 -146 c45 -81 137 -244
204 -362 254 -449 456 -875 746 -1575 111 -268 308 -668 420 -855 48 -80 140
-221 204 -315 157 -229 688 -937 799 -1066 150 -173 398 -408 597 -565 208
-164 344 -244 1083 -631 489 -257 552 -287 594 -288 60 0 97 32 104 91 9 69
-9 84 -251 211 -1057 552 -1188 626 -1395 791 -203 161 -450 395 -578 547 -96
114 -635 834 -766 1024 -227 328 -430 711 -622 1171 -339 815 -468 1081 -844
1745 -81 143 -162 288 -179 323 -26 51 -39 67 -69 79 -34 14 -41 14 -81 0
l-44 -16 7 87 c9 121 42 274 77 357 53 128 169 254 289 315 69 35 468 210 571
250 157 61 354 114 617 165 130 25 282 56 337 69 55 13 107 24 115 25 9 0 124
-83 255 -187z m-1930 -101 c-55 -26 -119 -59 -142 -74 -49 -31 -53 -32 -53
-12 0 18 33 35 170 91 138 57 149 55 25 -5z m-438 -195 c-21 -55 -76 -495 -99
-786 -16 -211 -16 -899 0 -1130 79 -1127 300 -2171 699 -3305 423 -1204 908
-2168 1447 -2883 172 -227 262 -332 444 -516 311 -315 605 -524 1037 -738 149
-74 148 -78 -5 -18 -416 166 -807 373 -1062 565 -1075 807 -2010 2571 -2596
4900 -273 1084 -402 2012 -363 2615 6 96 16 276 21 400 15 323 40 462 110 600
59 117 147 203 282 276 68 36 93 42 85 20z m18689 -152 c35 -20 66 -39 69 -44
13 -21 -816 -597 -1340 -932 -602 -384 -1184 -695 -1629 -869 -55 -21 -102
-39 -105 -39 -3 0 102 56 234 123 278 143 431 228 675 375 702 423 1779 1170
1980 1373 25 25 47 47 48 47 2 1 33 -14 68 -34z m647 -38 c73 -41 155 -86 182
-100 28 -15 39 -24 25 -20 -27 7 -253 98 -333 134 -47 21 -48 22 -31 41 9 10
19 19 21 19 3 0 64 -33 136 -74z m3018 -987 c79 -31 229 -115 263 -149 18 -18
18 -25 8 -132 -7 -63 -12 -139 -12 -169 l0 -54 -50 93 c-75 142 -131 215 -266
349 l-123 122 52 -16 c29 -8 86 -28 128 -44z m618 -579 c113 -221 164 -476
163 -815 0 -282 -32 -539 -108 -870 -273 -1197 -1089 -2861 -2259 -4610 -312
-467 -355 -525 -490 -660 -211 -211 -472 -389 -840 -571 -180 -88 -512 -234
-533 -234 -4 0 57 34 134 74 370 194 626 377 844 603 127 132 199 229 489 663
1191 1779 2011 3458 2291 4690 64 281 102 560 115 840 3 74 13 173 20 220 16
96 32 295 40 510 3 80 8 192 11 249 l6 103 40 -58 c21 -33 56 -93 77 -134z"/>
<path d="M29513 44565 c-34 -15 -63 -59 -63 -98 0 -54 38 -86 170 -141 133
-56 436 -207 560 -279 352 -204 685 -403 784 -468 95 -63 126 -79 156 -79 74
0 125 75 97 142 -19 43 -41 63 -162 140 -404 261 -1124 656 -1375 756 -116 46
-121 47 -167 27z"/>
<path d="M19621 43118 c-42 -12 -416 -384 -438 -436 -18 -42 -4 -92 34 -122
29 -23 99 -27 123 -7 8 7 106 105 218 218 194 197 202 207 202 245 0 48 -22
82 -66 100 -18 8 -35 14 -36 13 -2 0 -18 -5 -37 -11z"/>
<path d="M18763 42248 c-35 -17 -265 -317 -420 -548 -90 -135 -228 -371 -338
-580 -59 -113 -133 -245 -163 -295 -30 -49 -77 -126 -104 -169 -59 -97 -63
-139 -19 -188 25 -28 36 -33 74 -33 54 0 72 15 120 94 19 31 66 108 104 171
39 63 119 207 178 319 184 350 338 592 564 889 160 211 161 212 161 241 0 78
-87 133 -157 99z"/>
<path d="M31599 39391 c-23 -23 -29 -38 -29 -71 0 -58 13 -76 80 -110 140 -71
380 -227 574 -373 156 -118 245 -195 381 -328 121 -119 145 -133 199 -118 46
13 76 52 76 99 0 48 -48 109 -186 235 -281 257 -669 536 -934 670 -69 35 -123
34 -161 -4z"/>
<path d="M33116 38259 c-30 -23 -46 -73 -36 -109 9 -31 493 -518 528 -531 33
-13 86 5 112 38 30 38 26 92 -9 139 -34 46 -435 444 -471 468 -34 22 -92 20
-124 -5z"/>
<path d="M24323 39161 c-47 -29 -62 -86 -37 -138 17 -33 27 -41 84 -60 127
-42 195 -22 207 63 8 60 -15 96 -77 123 -76 33 -138 37 -177 12z"/>
<path d="M21498 38824 c-31 -17 -58 -61 -58 -97 0 -34 40 -89 73 -100 96 -31
185 61 147 153 -23 55 -103 77 -162 44z"/>
<path d="M22073 38821 c-62 -39 -72 -109 -24 -163 25 -28 36 -33 74 -33 105 0
159 117 88 188 -28 29 -99 33 -138 8z"/>
<path d="M21101 38730 c-54 -43 -72 -89 -55 -139 11 -29 67 -71 96 -71 30 0
81 27 122 64 32 30 36 39 36 81 0 38 -5 52 -29 76 -24 23 -38 29 -74 29 -38 0
-54 -7 -96 -40z"/>
<path d="M29392 38199 c-48 -19 -142 -111 -153 -150 -22 -71 29 -139 102 -139
31 0 49 9 103 56 75 63 88 82 88 130 0 45 -25 82 -67 100 -39 16 -42 16 -73 3z"/>
<path d="M26861 37365 c-109 -28 -279 -109 -465 -218 -72 -42 -151 -84 -178
-93 -28 -9 -58 -28 -74 -47 -22 -26 -25 -38 -21 -74 5 -51 27 -78 73 -93 50
-17 129 13 309 116 262 150 407 214 484 214 21 0 13 -8 -44 -42 -38 -23 -101
-54 -140 -70 -83 -34 -104 -58 -105 -116 0 -35 6 -49 29 -73 58 -57 135 -37
368 98 76 44 161 92 189 106 l52 26 43 -28 c24 -15 82 -55 127 -89 92 -68 194
-128 241 -142 71 -20 141 33 141 106 0 45 -28 75 -122 128 -99 56 -162 105
-135 106 49 0 181 -36 252 -69 44 -21 130 -75 190 -119 204 -151 296 -182 356
-123 23 24 29 38 29 73 -1 55 -18 76 -105 122 -38 21 -112 69 -163 107 -267
200 -510 260 -770 189 l-84 -23 -71 23 c-53 16 -104 23 -192 26 -104 4 -133 1
-214 -21z"/>
<path d="M26066 36820 c-126 -38 -97 -210 36 -210 94 0 148 42 148 114 -1 86
-80 127 -184 96z"/>
<path d="M27131 35307 c-72 -18 -95 -110 -42 -169 29 -32 31 -33 126 -36 61
-3 107 1 126 8 73 31 92 114 40 172 -29 33 -30 33 -125 33 -52 0 -109 -3 -125
-8z"/>
<path d="M20204 22911 c-54 -33 -59 -64 -58 -366 0 -258 5 -345 40 -750 19
-213 26 -247 61 -274 42 -34 98 -28 139 13 37 37 38 42 24 166 -40 363 -64
849 -51 1014 12 137 3 174 -48 200 -40 21 -69 20 -107 -3z"/>
<path d="M17513 20600 c-22 -13 -35 -31 -42 -57 -14 -52 -29 -518 -41 -1228
-13 -762 -25 -969 -76 -1241 -67 -368 -193 -737 -320 -941 -62 -99 -170 -207
-258 -258 -77 -44 -98 -69 -98 -119 0 -64 43 -108 107 -108 64 0 216 101 315
209 170 185 317 520 425 968 91 378 110 609 125 1500 5 330 15 736 21 901 14
332 11 352 -42 379 -38 20 -78 19 -116 -5z"/>
<path d="M19204 20341 c-46 -28 -52 -57 -42 -211 10 -147 3 -745 -13 -1095
-22 -512 -86 -819 -229 -1110 -88 -177 -163 -277 -336 -444 -134 -130 -137
-134 -142 -181 -4 -44 -2 -52 26 -80 25 -24 39 -30 75 -30 37 0 54 7 94 38 91
73 299 298 363 393 205 307 319 694 359 1224 26 343 35 1200 15 1394 -11 101
-92 150 -170 102z"/>
<path d="M23625 25199 c-27 -6 -126 -11 -220 -13 -122 -2 -192 -7 -247 -21
-74 -17 -80 -17 -135 -1 -89 27 -289 33 -394 12 -158 -32 -337 -105 -471 -191
-40 -26 -138 -102 -216 -169 -217 -183 -236 -195 -316 -207 -91 -12 -131 -32
-151 -76 -33 -70 -2 -123 105 -179 41 -21 110 -83 265 -239 224 -225 286 -274
447 -350 189 -90 399 -145 618 -164 139 -12 1330 -5 1545 9 347 23 604 134
890 385 185 163 285 233 480 336 118 63 175 112 175 153 0 42 0 42 -485 258
-148 66 -367 169 -485 229 -316 159 -456 210 -623 229 -96 11 -221 1 -314 -25
-47 -14 -58 -13 -135 5 -97 24 -262 33 -333 19z m-954 -257 c-19 -15 -89 -72
-155 -128 l-121 -101 -108 -17 c-59 -9 -126 -24 -149 -32 -22 -8 -43 -12 -45
-10 -7 7 146 124 216 166 86 51 215 106 306 130 92 25 96 24 56 -8z m1949 -17
c47 -18 202 -90 345 -161 143 -71 312 -151 375 -178 63 -27 119 -52 125 -57
18 -17 -44 -9 -77 10 -31 18 -304 143 -578 263 -181 80 -353 170 -310 162 19
-3 73 -21 120 -39z m-973 -1 c110 -32 230 -36 318 -10 60 17 62 17 115 -4 30
-12 137 -63 238 -113 l183 -92 -103 -7 c-57 -4 -136 -15 -176 -24 -71 -17 -76
-17 -185 5 -176 34 -287 28 -467 -26 l-86 -25 -144 37 c-181 46 -316 54 -469
31 -58 -9 -121 -16 -140 -16 l-36 1 50 44 c60 53 183 128 272 165 63 27 65 27
131 13 84 -18 171 -12 277 20 104 32 118 32 222 1z m-774 -513 c200 -56 360
-63 542 -26 69 14 84 15 143 1 157 -34 339 -28 509 19 64 18 91 21 116 14 71
-21 477 -99 546 -105 l74 -7 -38 -31 c-22 -17 -92 -76 -156 -131 -179 -154
-333 -238 -536 -292 -95 -26 -107 -27 -398 -27 -284 -1 -305 0 -395 23 -205
51 -376 126 -500 220 -36 27 -116 104 -178 171 l-113 123 123 42 c68 24 130
41 138 39 8 -2 64 -17 123 -33z m-736 -43 c66 -36 109 -74 283 -248 113 -114
223 -221 245 -238 l40 -31 -72 19 c-157 43 -328 123 -430 202 -51 39 -290 286
-282 291 2 2 33 12 69 24 36 12 66 22 67 22 2 1 38 -18 80 -41z m3202 -56 l45
-7 -55 -41 c-30 -23 -90 -74 -134 -113 -148 -133 -291 -217 -470 -277 -127
-42 -154 -44 -105 -6 19 15 86 72 150 126 151 130 235 193 356 266 104 62 119
66 213 52z"/>
<path d="M23250 23086 c-185 -34 -297 -72 -501 -170 -137 -66 -154 -82 -154
-141 0 -74 68 -123 143 -103 19 5 83 34 143 64 105 52 269 114 304 114 15 0
15 -2 1 -22 -32 -45 -13 -119 35 -144 50 -25 90 -17 216 45 66 32 153 71 192
85 64 23 78 25 114 15 73 -19 254 -99 318 -140 75 -49 106 -56 151 -35 66 31
80 122 28 174 l-30 30 62 -14 c110 -26 300 -107 384 -165 55 -38 84 -43 128
-25 77 32 83 135 11 190 -88 67 -315 168 -465 206 -174 44 -413 56 -541 28
-56 -13 -78 -13 -145 -2 -127 21 -309 25 -394 10z"/>
<path d="M32393 23136 c-68 -31 -68 -30 -71 -431 -2 -207 3 -549 12 -805 25
-685 36 -1275 36 -1960 0 -344 3 -703 7 -799 6 -163 8 -175 30 -202 45 -53
122 -47 166 13 19 26 20 45 18 780 -2 828 -14 1525 -36 2123 -8 215 -15 578
-15 807 l0 418 -27 30 c-33 36 -76 45 -120 26z"/>
<path d="M32938 23111 l-33 -29 -7 -194 c-7 -174 4 -846 17 -1073 15 -255 28
-964 34 -1852 l6 -993 32 -31 c56 -57 149 -36 174 39 23 68 -2 2057 -37 2972
-8 223 -14 563 -14 755 1 193 1 357 1 366 -1 9 -13 28 -27 43 -39 38 -102 37
-146 -3z"/>
<path d="M35134 19281 c-19 -12 -36 -33 -42 -53 -7 -20 -12 -178 -14 -393 -2
-336 -1 -362 16 -387 27 -40 86 -56 131 -35 60 29 62 36 69 430 7 395 5 412
-53 441 -40 21 -69 20 -107 -3z"/>
<path d="M33078 18090 l-30 -31 5 -377 c5 -415 14 -511 72 -797 38 -186 104
-439 138 -525 18 -45 29 -59 61 -74 36 -17 43 -18 80 -5 56 19 84 74 67 128
-82 257 -135 479 -172 716 -17 116 -22 206 -28 525 -6 336 -9 389 -24 417 -22
41 -44 53 -97 53 -33 0 -48 -6 -72 -30z"/>
<path d="M15617 15379 c-33 -29 -47 -73 -35 -116 9 -34 12 -36 119 -106 36
-24 169 -122 295 -218 126 -97 400 -299 609 -449 501 -361 815 -596 1216 -911
425 -334 589 -457 829 -616 569 -379 1124 -675 1619 -865 216 -83 725 -248
763 -248 53 0 108 58 108 115 0 14 4 25 8 25 4 0 54 -16 111 -35 56 -19 158
-50 227 -71 110 -32 129 -34 155 -24 71 30 92 115 42 169 -23 24 -63 40 -233
91 -620 188 -1086 398 -1707 772 -389 233 -652 419 -1191 841 -441 346 -693
535 -1202 902 -250 180 -531 387 -625 460 -203 157 -340 257 -392 285 -55 29
-106 26 -145 -9 -28 -25 -33 -36 -33 -74 0 -51 19 -79 75 -107 35 -18 143 -98
450 -331 91 -69 336 -249 545 -399 464 -334 791 -580 1205 -905 406 -319 539
-418 762 -568 345 -232 647 -410 1003 -593 121 -63 217 -114 213 -114 -11 0
-239 92 -358 145 -273 122 -702 353 -1000 540 -363 227 -536 351 -1067 766
-479 375 -724 558 -1198 899 -209 150 -443 321 -520 380 -77 58 -196 149 -265
201 -204 156 -247 182 -305 187 -43 4 -56 0 -78 -19z"/>
<path d="M33203 15126 c-21 -10 -40 -31 -56 -63 -71 -139 -223 -341 -464 -615
-206 -236 -351 -389 -510 -541 -199 -189 -642 -578 -851 -746 -110 -89 -142
-128 -142 -176 0 -70 75 -128 135 -105 68 26 864 720 1121 978 146 146 397
422 554 609 212 253 370 494 370 565 0 77 -83 127 -157 94z"/>
<path d="M15035 14877 c-17 -14 -28 -36 -32 -63 -6 -49 19 -102 201 -423 359
-630 491 -900 785 -1604 355 -850 484 -1070 1152 -1958 130 -173 273 -358 317
-410 150 -178 471 -477 687 -641 157 -118 332 -218 1013 -575 612 -321 606
-319 663 -255 37 41 40 99 7 136 -13 13 -180 107 -373 207 -1084 564 -1177
623 -1577 1001 -189 177 -277 284 -603 718 -432 577 -547 748 -720 1064 -121
221 -185 360 -382 831 -286 682 -409 935 -763 1560 -81 143 -164 292 -183 332
-20 39 -47 79 -59 87 -34 24 -102 21 -133 -7z"/>
<path d="M34570 14567 c-63 -22 -73 -54 -81 -271 -4 -105 -3 -200 1 -212 31
-81 168 -86 198 -6 13 34 22 140 24 304 1 113 0 130 -18 149 -15 18 -75 51
-86 48 -2 0 -19 -5 -38 -12z"/>
<path d="M35117 14550 c-34 -27 -47 -76 -47 -177 0 -69 -3 -83 -16 -83 -26 0
-71 -31 -83 -57 -6 -13 -11 -50 -11 -82 0 -65 47 -459 85 -709 30 -192 30
-212 10 -212 -30 0 -75 -30 -90 -61 -9 -16 -37 -134 -62 -262 -45 -229 -46
-232 -77 -252 -53 -34 -63 -86 -76 -381 -10 -241 -15 -281 -65 -574 -30 -173
-86 -511 -124 -750 -89 -553 -126 -755 -206 -1115 -35 -159 -87 -409 -115
-555 -109 -564 -204 -867 -422 -1350 -143 -318 -235 -455 -448 -670 -157 -159
-347 -308 -797 -628 -133 -95 -247 -181 -253 -191 -40 -75 25 -171 106 -158
34 6 391 252 669 461 381 287 626 543 779 813 110 195 293 623 379 888 83 254
127 431 197 795 23 118 68 334 100 480 76 344 112 524 159 800 l39 225 1 -553
c1 -545 -4 -669 -34 -813 -18 -85 -7 -132 38 -160 40 -25 99 -20 133 12 28 26
36 54 61 204 17 102 18 204 18 1390 l0 1280 42 215 c23 118 56 290 74 383 17
92 34 166 36 163 2 -2 13 -62 24 -132 40 -259 84 -454 148 -649 l29 -91 7
-1144 c8 -1180 6 -1252 -32 -1467 -15 -88 -15 -92 4 -125 12 -22 32 -38 59
-47 35 -12 44 -12 74 3 20 9 41 25 48 36 7 11 23 76 35 143 22 121 22 131 22
1150 l0 1027 49 -55 c73 -84 131 -125 177 -125 71 0 126 75 101 140 -6 14 -44
59 -85 101 -81 83 -139 173 -199 312 l-38 88 1 152 c1 137 5 203 25 374 5 49
4 55 -24 83 -25 24 -39 30 -74 30 -24 0 -54 -7 -66 -16 -18 -12 -23 -13 -27
-2 -5 15 -37 243 -60 428 -9 69 -38 283 -65 475 -70 503 -67 459 -36 473 53
24 60 48 67 265 8 220 4 242 -46 265 -39 18 -89 14 -118 -8z"/>
<path d="M35424 14410 c-56 -22 -83 -109 -48 -158 8 -12 46 -113 84 -224 37
-112 82 -241 100 -287 34 -92 64 -274 120 -721 54 -436 102 -673 185 -926 56
-171 147 -374 211 -470 81 -122 203 -234 255 -234 62 0 109 45 109 105 0 40
-15 62 -105 156 -72 75 -90 102 -148 220 -100 203 -173 433 -226 709 -24 128
-74 480 -69 486 2 2 21 -19 42 -46 52 -68 136 -144 188 -168 87 -42 239 -49
300 -14 105 60 43 215 -79 198 -87 -12 -122 1 -188 68 -78 80 -171 216 -239
352 -100 200 -114 245 -141 460 -14 107 -25 213 -25 235 0 62 -24 107 -65 125
-20 8 -46 14 -57 12 -16 -2 -27 9 -48 47 -37 70 -97 99 -156 75z"/>
<path d="M34063 13951 c-17 -11 -34 -30 -38 -43 -16 -53 -231 -512 -435 -928
-249 -509 -651 -1354 -741 -1557 -65 -147 -187 -452 -394 -988 -271 -701 -361
-891 -570 -1205 -164 -247 -284 -367 -488 -491 -107 -65 -876 -494 -1182 -659
-339 -184 -706 -357 -1255 -592 -102 -44 -195 -89 -207 -100 -29 -27 -37 -69
-23 -112 12 -37 38 -59 83 -70 31 -7 60 4 442 172 706 310 913 416 1998 1025
484 272 599 374 840 743 213 327 291 499 655 1439 104 270 223 569 265 665 89
209 475 1023 777 1640 302 618 432 904 438 962 4 44 2 50 -31 83 -41 41 -84
46 -134 16z"/>
<path d="M34652 13955 c-24 -11 -38 -27 -54 -62 -67 -156 -269 -585 -413 -878
-170 -347 -624 -1295 -713 -1491 -91 -199 -182 -422 -363 -891 -354 -918 -435
-1091 -673 -1442 -142 -211 -281 -345 -476 -463 -97 -59 -894 -502 -1165 -648
-340 -184 -715 -361 -1255 -592 -200 -85 -240 -114 -240 -169 0 -37 24 -85 49
-99 42 -22 91 -10 278 71 570 246 928 415 1268 599 432 233 1163 644 1255 705
195 129 316 254 479 495 225 332 348 598 696 1506 236 614 269 690 637 1464
249 523 327 681 328 669 0 -3 -18 -102 -40 -220 -54 -284 -184 -1045 -265
-1549 -93 -579 -127 -762 -210 -1140 -40 -184 -79 -364 -85 -400 -82 -463
-177 -823 -295 -1125 -145 -370 -280 -644 -391 -792 -199 -266 -420 -455
-1028 -884 -158 -111 -223 -163 -234 -185 -21 -45 -9 -96 30 -129 62 -52 78
-44 426 203 737 526 968 761 1181 1203 240 499 384 933 486 1469 21 107 72
357 116 555 99 457 113 531 204 1095 160 985 270 1616 360 2061 25 120 45 230
45 244 0 13 -13 40 -30 58 l-30 35 128 278 c71 154 134 294 140 313 20 58 -7
122 -60 140 -39 14 -46 13 -86 -4z"/>
<path d="M29877 12752 c-43 -22 -89 -50 -102 -62 -68 -64 -14 -180 83 -180 31
0 174 70 207 101 31 30 28 111 -6 145 -44 43 -91 42 -182 -4z"/>
<path d="M30440 12743 c-71 -37 -96 -55 -108 -79 -31 -67 10 -141 85 -151 31
-4 52 3 118 37 96 50 125 79 125 125 0 49 -18 82 -55 100 -49 22 -64 20 -165
-32z"/>
<path d="M15185 12721 c-38 -16 -60 -50 -59 -94 1 -70 111 -479 198 -732 151
-445 483 -1246 534 -1285 51 -41 112 -34 152 18 31 39 24 80 -36 213 -153 336
-375 901 -472 1199 -33 102 -83 277 -111 390 -29 113 -57 218 -63 234 -20 51
-89 79 -143 57z"/>
<path d="M30230 12503 c-8 -3 -94 -58 -190 -123 -501 -335 -930 -558 -1417
-739 -482 -178 -972 -303 -1473 -375 -451 -65 -1652 -175 -1782 -163 -32 3
-78 15 -103 27 -53 26 -91 21 -125 -16 -27 -28 -69 -30 -280 -14 -95 8 -135
15 -166 31 -135 72 -234 -119 -102 -199 83 -49 282 -62 868 -57 500 5 596 9
925 36 1308 107 1814 186 2461 384 530 162 967 350 1419 609 201 116 652 411
665 437 6 10 10 36 10 59 0 33 -6 48 -29 71 -28 27 -50 34 -96 29 -11 -1 -117
-66 -235 -145 -433 -288 -904 -537 -1282 -679 -38 -14 -68 -23 -68 -21 0 3 59
35 132 71 156 78 335 178 496 276 194 118 468 305 491 334 25 32 28 90 5 123
-26 36 -86 58 -124 44z"/>
<path d="M22713 11948 c-63 -17 -92 -92 -59 -156 19 -38 40 -45 196 -76 74
-15 164 -33 199 -41 53 -11 70 -12 95 -1 58 25 81 71 65 130 -15 55 -37 66
-216 106 -201 44 -238 50 -280 38z"/>
<path d="M23257 11930 c-38 -30 -52 -80 -33 -123 18 -45 47 -63 115 -71 30 -4
112 -20 182 -37 70 -16 141 -29 159 -29 71 0 119 55 106 123 -11 61 -38 75
-228 118 -200 44 -263 48 -301 19z"/>
<path d="M26805 11744 c-132 -21 -727 -100 -891 -119 -77 -8 -192 -17 -257
-19 -128 -3 -159 -15 -178 -64 -29 -74 25 -151 109 -154 84 -3 174 2 329 19
146 16 154 16 186 -2 65 -35 353 -9 1147 101 300 41 323 46 349 81 45 56 15
152 -52 168 -13 4 -120 -7 -237 -24 -117 -17 -224 -31 -238 -31 -13 0 -40 14
-59 30 -39 35 -64 36 -208 14z"/>
<path d="M15634 10081 c-33 -14 -64 -61 -64 -96 0 -43 27 -119 49 -139 46 -41
140 -27 166 25 28 54 7 148 -42 192 -24 21 -80 30 -109 18z"/>
<path d="M16225 10083 c-30 -7 -73 -52 -80 -83 -7 -32 27 -130 54 -154 10 -9
34 -19 52 -22 102 -16 153 79 100 189 -26 54 -76 82 -126 70z"/>
<path d="M19031 8106 c-52 -29 -68 -112 -30 -160 14 -18 81 -56 183 -105 88
-42 275 -139 413 -215 139 -75 331 -175 425 -221 163 -79 796 -339 1083 -445
540 -198 1438 -422 2005 -499 307 -42 396 -46 970 -45 696 2 1694 22 1738 36
37 11 72 58 72 96 0 38 -29 83 -63 95 -38 14 -623 15 -1337 3 -392 -7 -476 -6
-610 8 -512 55 -1338 246 -1967 455 -173 57 -728 275 -1023 401 -156 66 -427
203 -685 345 -198 109 -519 265 -546 265 -87 0 -137 -116 -77 -180 11 -11 97
-58 191 -104 95 -45 249 -125 342 -176 94 -51 247 -133 340 -182 94 -48 166
-88 161 -88 -4 0 -92 35 -195 77 -212 88 -467 213 -751 369 -254 139 -555 284
-588 284 -15 -1 -38 -7 -51 -14z"/>
<path d="M29584 6381 c-77 -33 -86 -152 -14 -194 68 -41 137 -8 164 76 7 23
-15 76 -41 100 -24 21 -80 30 -109 18z"/>
<path d="M30175 6383 c-31 -7 -72 -51 -79 -84 -12 -63 42 -129 106 -129 35 0
83 34 98 69 32 78 -42 163 -125 144z"/>
</g>
</svg>
